<?xml version="1.0" encoding="UTF-8" standalone="no"?>
<svg
   xmlns:dc="http://purl.org/dc/elements/1.1/"
   xmlns:cc="http://creativecommons.org/ns#"
   xmlns:rdf="http://www.w3.org/1999/02/22-rdf-syntax-ns#"
   xmlns:svg="http://www.w3.org/2000/svg"
   xmlns="http://www.w3.org/2000/svg"
   viewBox="0 0 144 144"
   height="144"
   width="144"
   xml:space="preserve"
   id="svg2"
   version="1.1"><metadata
     id="metadata8"><rdf:RDF><cc:Work
         rdf:about=""><dc:format>image/svg+xml</dc:format><dc:type
           rdf:resource="http://purl.org/dc/dcmitype/StillImage" /></cc:Work></rdf:RDF></metadata><defs
     id="defs6"><clipPath
       id="clipPath18"
       clipPathUnits="userSpaceOnUse"><path
         id="path16"
         d="M 0,108 H 108 V 0 H 0 Z" /></clipPath><clipPath
       id="clipPath26"
       clipPathUnits="userSpaceOnUse"><path
         id="path24"
         d="M 37.7734,16.249 H 81.9482 V 6.37793 H 37.7734 Z" /></clipPath><clipPath
       id="clipPath42"
       clipPathUnits="userSpaceOnUse"><path
         id="path40"
         d="M 4.16666,96.4551 H 103.833 V 11.585 H 4.16666 Z" /></clipPath></defs><g
     transform="matrix(1.3333333,0,0,-1.3333333,0,144)"
     id="g10"><g
       id="g12"><g
         clip-path="url(#clipPath18)"
         id="g14"><g
           id="g20"><g
             id="g22" /><g
             id="g34"><g
               style="opacity:0.5"
               id="g32"
               clip-path="url(#clipPath26)"><text
                 id="text30"
                 style="font-variant:normal;font-weight:600;font-stretch:normal;font-size:8.25080013px;font-family:Baskerville;-inkscape-font-specification:Baskerville-SemiBold;writing-mode:lr-tb;fill:#231f20;fill-opacity:1;fill-rule:nonzero;stroke:none"
                 transform="matrix(1,0,0,-1,37.7734,9.3555)"><tspan
                   id="tspan28"
                   y="0"
                   x="0 4.7277083 7.8217583 14.092366 20.197958 25.610483 27.673183 31.798584 35.923985 40.049385">SINCE 1992</tspan></text>
</g></g></g><g
           id="g36"><g
             id="g38" /><g
             id="g98"><g
               style="opacity:1"
               id="g96"
               clip-path="url(#clipPath42)"><g
                 id="g46"
                 transform="translate(70.96,21.6152)"><path
                   id="path44"
                   style="fill:#8a1f03;fill-opacity:1;fill-rule:nonzero;stroke:none"
                   d="M 0,0 C -0.146,-1.174 -0.675,-1.937 -0.792,-2.083 -0.88,-2.2 -0.938,-2.259 -1.056,-2.259 c -0.117,0 -0.616,0.117 -0.85,0.322 -0.264,0.207 -0.411,0.441 -0.499,0.792 -0.05,0.2 -0.214,0.318 -0.398,0.322 0.942,1.084 2.015,2.401 2.493,2.986 C -0.119,1.751 0.153,1.21 0,0 m -1.906,-3.607 c -0.47,-0.441 -0.968,-0.558 -1.321,-0.353 -0.38,0.235 -0.556,0.909 -0.293,1.496 0.264,0.558 0.529,0.792 0.587,0.821 0.059,0.059 0.118,0.147 0.176,0.03 0.059,-0.117 0.293,-0.47 0.469,-0.616 0.177,-0.176 0.733,-0.469 0.909,-0.499 0.148,-0.058 -0.234,-0.586 -0.527,-0.879 m -16.922,-0.47 c -0.265,0 -0.411,0.146 -0.411,0.47 0,1.847 4.194,7.625 5.601,7.625 0.088,0 0.176,-0.03 0.264,-0.088 0.177,-0.147 0.265,-0.353 0.265,-0.587 0,-0.704 -0.734,-1.906 -2.142,-3.871 -1.671,-2.317 -2.903,-3.549 -3.577,-3.549 m -4.84,4.634 c 1.438,2.111 3.461,3.754 3.988,3.373 0.529,-0.382 -0.322,-1.526 -1.055,-2.259 -0.851,-0.851 -2.258,-2.082 -3.548,-2.082 0.176,0.322 0.381,0.645 0.615,0.968 m 29.826,2.2 C 5.982,2.521 5.044,1.144 3.783,0 3.021,-0.704 2.053,-1.232 1.349,-1.555 1.525,-0.968 1.555,-0.411 1.555,0.029 1.584,1.173 0.821,2.229 0.909,2.991 0.968,3.431 1.378,3.783 1.672,4.135 1.994,4.516 2.581,5.073 1.965,5.454 1.319,5.836 0.616,4.985 0.176,4.311 -0.146,3.783 -0.44,3.401 -0.47,2.786 -0.474,2.743 -0.466,2.704 -0.463,2.664 -0.729,2.342 -1.469,1.344 -3.139,-0.587 -5.016,-2.728 -6.98,-4.37 -7.654,-3.989 c -0.411,0.235 -0.089,0.88 0.527,1.789 0.646,0.938 2.435,3.256 3.138,4.136 0.704,0.879 0.85,1.818 0.469,2.111 C -3.931,4.369 -4.634,4.105 -5.162,3.842 -5.66,3.636 -6.335,3.343 -6.394,3.431 -6.481,3.577 -6.218,3.93 -5.925,4.34 -5.602,4.78 -5.455,5.513 -5.837,5.689 -6.218,5.865 -7.01,5.073 -7.449,4.34 -7.93,3.566 -8.161,2.821 -7.847,2.494 c -0.92,-1.301 -5.466,-6.542 -6.758,-6.542 -0.206,0 -0.293,0.147 -0.293,0.353 0,0.761 1.172,2.375 2.082,3.841 1.465,2.346 2.405,3.93 2.405,3.872 0,0.058 -0.06,0.117 -0.148,0.117 -0.175,0 -0.38,-0.147 -0.673,-0.147 -0.412,0 -0.763,0.147 -0.822,0.147 -0.058,0 -0.294,-0.293 -0.616,-0.734 0,0.529 -0.322,1.056 -1.114,1.056 -1.825,0 -4.768,-2.646 -6.037,-5.03 -0.073,-0.074 -0.135,-0.143 -0.21,-0.219 -2.258,-2.288 -4.722,-3.666 -5.338,-3.227 -0.498,0.353 -0.059,1.643 0.821,3.198 1.32,0.058 3.08,0.821 4.136,1.641 0.909,0.704 1.583,1.731 1.583,2.523 0,0.411 -0.176,0.762 -0.586,0.938 -1.379,0.646 -4.282,-1.231 -6.189,-3.695 -0.909,-1.202 -1.348,-2.287 -1.348,-3.167 0,-0.909 0.469,-1.584 1.261,-1.877 1.427,-0.477 3.9,1.382 5.405,2.783 -0.096,-0.318 -0.155,-0.626 -0.155,-0.906 0,-1.085 0.586,-1.936 1.378,-1.936 1.203,0 2.668,1.995 3.402,2.845 -0.117,-0.411 -0.176,-0.821 -0.176,-1.232 0,-0.733 0.264,-1.613 1.056,-1.613 1.143,0 3.05,1.848 4.047,2.933 0.978,1.081 2.815,3.27 3.348,3.946 0.551,0.076 1.35,0.612 1.609,0.424 0.322,-0.235 -1.379,-2.083 -2.259,-3.314 -0.498,-0.734 -0.968,-1.731 -0.968,-2.552 0,-0.557 0.205,-1.026 0.792,-1.261 1.378,-0.616 3.284,1.29 4.487,2.493 0.018,0.019 0.04,0.044 0.058,0.064 -0.272,-0.517 -0.409,-0.959 -0.409,-1.325 0,-0.44 0.176,-0.792 0.439,-1.027 0.264,-0.234 0.704,-0.381 1.232,-0.381 0.762,0 1.701,0.293 2.434,0.91 0.529,0.439 0.88,0.967 1.115,1.465 0.997,0.412 2.082,1.056 3.02,1.936 C 4.78,0.381 6.1,1.877 6.511,2.463 6.716,2.727 6.335,2.962 6.158,2.757" /></g><g
                 id="g50"
                 transform="translate(14.751,68.2744)"><path
                   id="path48"
                   style="fill:#231f20;fill-opacity:1;fill-rule:nonzero;stroke:none"
                   d="m 0,0 c 1.036,-0.589 2.049,-0.748 3.037,-0.475 0.989,0.273 1.768,0.908 2.334,1.903 0.535,0.941 0.634,1.909 0.295,2.905 0.3,0.04 0.605,0.012 0.914,-0.083 L 6.704,4.468 4.292,5.841 4.167,5.623 C 4.544,5.354 4.882,4.986 5.183,4.517 5.482,4.048 5.612,3.57 5.572,3.082 5.532,2.594 5.407,2.165 5.197,1.796 4.804,1.105 4.2,0.685 3.386,0.534 2.572,0.383 1.648,0.602 0.616,1.189 -0.475,1.81 -1.191,2.499 -1.535,3.257 -1.88,4.015 -1.846,4.755 -1.436,5.476 -1.101,6.065 -0.618,6.491 0.011,6.754 0.64,7.017 1.462,6.96 2.477,6.585 L 2.601,6.803 -0.045,8.228 -0.172,8.004 C 0.119,7.799 0.367,7.541 0.571,7.231 0.197,7.171 -0.216,6.993 -0.665,6.695 -1.114,6.397 -1.485,5.991 -1.778,5.477 -2.133,4.854 -2.313,4.198 -2.318,3.511 -2.324,2.824 -2.109,2.164 -1.674,1.531 -1.238,0.897 -0.681,0.387 0,0" /></g><g
                 id="g54"
                 transform="translate(19.1338,81.1846)"><path
                   id="path52"
                   style="fill:#231f20;fill-opacity:1;fill-rule:nonzero;stroke:none"
                   d="m 0,0 c 0.139,0.026 0.285,-0.02 0.439,-0.137 0.155,-0.117 0.438,-0.396 0.85,-0.838 L 3.94,-3.816 C 4.393,-4.3 4.662,-4.612 4.749,-4.751 4.837,-4.891 4.874,-5.039 4.862,-5.194 4.85,-5.349 4.7,-5.561 4.412,-5.829 L 4.293,-5.941 4.476,-6.137 9.274,-1.661 7.716,0.258 7.511,0.067 C 7.807,-0.456 7.979,-0.922 8.028,-1.332 8.078,-1.742 8.041,-2.078 7.917,-2.339 7.794,-2.601 7.579,-2.874 7.274,-3.158 L 6.844,-3.561 C 6.456,-3.922 6.161,-4.084 5.96,-4.045 5.759,-4.006 5.338,-3.644 4.697,-2.958 l -1.279,1.372 0.637,0.594 c 0.248,0.231 0.438,0.379 0.573,0.443 0.135,0.065 0.28,0.067 0.436,0.008 C 5.221,-0.6 5.449,-0.791 5.75,-1.113 L 5.95,-0.925 4.101,1.057 3.9,0.87 C 4.166,0.585 4.327,0.377 4.383,0.245 4.438,0.114 4.434,-0.029 4.366,-0.182 4.299,-0.335 4.124,-0.543 3.842,-0.807 L 3.227,-1.381 0.958,1.05 1.762,1.8 C 2.166,2.177 2.48,2.429 2.703,2.555 2.927,2.681 3.185,2.721 3.475,2.675 3.766,2.629 4.145,2.446 4.613,2.127 L 4.814,2.314 3.33,3.631 -0.811,-0.232 -0.627,-0.429 C -0.348,-0.168 -0.139,-0.025 0,0" /></g><g
                 id="g58"
                 transform="translate(27.1113,87.9395)"><path
                   id="path56"
                   style="fill:#231f20;fill-opacity:1;fill-rule:nonzero;stroke:none"
                   d="M 0,0 C 0.35,0.196 0.594,0.292 0.732,0.289 0.87,0.286 1,0.213 1.121,0.072 1.243,-0.07 1.458,-0.416 1.767,-0.967 L 3.664,-4.358 C 3.988,-4.936 4.178,-5.312 4.233,-5.489 4.29,-5.665 4.282,-5.822 4.21,-5.961 4.138,-6.1 3.954,-6.251 3.658,-6.417 L 3.454,-6.531 3.586,-6.766 9.46,-3.478 8.372,-1.415 8.133,-1.549 C 8.286,-2.182 8.34,-2.676 8.296,-3.031 8.251,-3.386 8.147,-3.659 7.983,-3.849 7.819,-4.039 7.525,-4.252 7.101,-4.49 L 6.575,-4.784 C 6.178,-5.007 5.898,-5.117 5.739,-5.115 5.579,-5.113 5.45,-5.057 5.354,-4.946 5.256,-4.835 5.066,-4.53 4.787,-4.031 L 2.761,-0.41 C 2.439,0.164 2.254,0.538 2.203,0.711 2.153,0.884 2.166,1.028 2.239,1.143 2.313,1.258 2.521,1.411 2.86,1.601 L 3.166,1.772 3.035,2.007 -0.284,0.149 -0.153,-0.086 Z" /></g><g
                 id="g62"
                 transform="translate(37.5205,92.8853)"><path
                   id="path60"
                   style="fill:#231f20;fill-opacity:1;fill-rule:nonzero;stroke:none"
                   d="M 0,0 C 0.136,-0.038 0.247,-0.144 0.335,-0.316 0.422,-0.489 0.554,-0.864 0.73,-1.442 L 1.865,-5.158 C 2.059,-5.792 2.164,-6.19 2.182,-6.354 2.199,-6.518 2.168,-6.667 2.089,-6.801 2.01,-6.935 1.782,-7.06 1.406,-7.174 L 1.25,-7.222 1.328,-7.479 7.604,-5.562 7.046,-3.154 6.777,-3.236 C 6.814,-3.836 6.765,-4.331 6.629,-4.721 6.493,-5.11 6.312,-5.396 6.087,-5.577 5.861,-5.758 5.549,-5.909 5.15,-6.031 L 4.586,-6.203 C 4.079,-6.358 3.744,-6.374 3.58,-6.25 3.416,-6.127 3.197,-5.617 2.923,-4.719 l -0.548,1.794 0.833,0.254 c 0.323,0.099 0.561,0.148 0.709,0.147 0.149,-0.002 0.281,-0.063 0.395,-0.185 0.116,-0.122 0.237,-0.394 0.366,-0.814 L 4.94,-3.443 4.148,-0.85 3.886,-0.93 C 3.999,-1.303 4.053,-1.561 4.045,-1.703 4.038,-1.846 3.971,-1.972 3.843,-2.08 3.715,-2.188 3.467,-2.299 3.098,-2.411 L 2.293,-2.657 1.321,0.523 2.372,0.844 C 2.901,1.005 3.294,1.094 3.55,1.109 3.806,1.124 4.055,1.047 4.296,0.878 4.536,0.709 4.797,0.379 5.078,-0.114 L 5.341,-0.034 4.585,1.801 -0.83,0.146 -0.752,-0.11 C -0.387,0.001 -0.137,0.038 0,0" /></g><g
                 id="g66"
                 transform="translate(49.9912,95.8369)"><path
                   id="path64"
                   style="fill:#231f20;fill-opacity:1;fill-rule:nonzero;stroke:none"
                   d="M 0,0 C 0.581,0.056 0.998,0.035 1.251,-0.063 1.503,-0.163 1.7,-0.318 1.842,-0.532 1.984,-0.745 2.075,-1.057 2.115,-1.468 2.172,-2.058 2.061,-2.499 1.78,-2.792 1.499,-3.085 0.94,-3.273 0.103,-3.354 0.036,-3.361 -0.045,-3.367 -0.143,-3.372 l -0.321,3.31 C -0.306,-0.036 -0.151,-0.015 0,0 M 2.224,-3.885 C 2.604,-4.159 2.826,-4.622 2.89,-5.273 2.951,-5.91 2.843,-6.401 2.563,-6.75 2.284,-7.098 1.834,-7.302 1.214,-7.362 0.864,-7.396 0.626,-7.366 0.498,-7.273 0.369,-7.18 0.281,-7.034 0.235,-6.834 0.188,-6.636 0.129,-6.162 0.056,-5.414 l -0.17,1.757 c 0.154,0.023 0.301,0.041 0.44,0.054 0.884,0.086 1.517,-0.008 1.898,-0.282 m -4.887,3.562 c 0.398,0.038 0.661,0.029 0.786,-0.03 0.125,-0.058 0.215,-0.178 0.27,-0.361 0.055,-0.182 0.114,-0.594 0.175,-1.233 l 0.373,-3.839 c 0.064,-0.659 0.087,-1.081 0.07,-1.264 -0.017,-0.184 -0.087,-0.325 -0.208,-0.423 -0.122,-0.098 -0.352,-0.163 -0.689,-0.195 l -0.302,-0.03 0.026,-0.267 3.094,0.3 c 0.771,0.075 1.381,0.19 1.831,0.345 0.448,0.155 0.802,0.426 1.062,0.814 0.26,0.387 0.366,0.828 0.318,1.325 -0.055,0.57 -0.319,1.024 -0.789,1.362 -0.472,0.338 -1.159,0.496 -2.061,0.475 0.734,0.18 1.271,0.444 1.611,0.79 0.34,0.346 0.486,0.775 0.436,1.287 C 3.22,-0.026 2.081,0.49 -0.074,0.28 l -1.473,-0.19 -1.294,-0.16 0.027,-0.268 z" /></g><g
                 id="g70"
                 transform="translate(60.335,95.9946)"><path
                   id="path68"
                   style="fill:#231f20;fill-opacity:1;fill-rule:nonzero;stroke:none"
                   d="M 0,0 C 0.187,-0.004 0.353,-0.014 0.496,-0.03 1.426,-0.13 2.011,-0.361 2.252,-0.724 2.493,-1.087 2.584,-1.545 2.524,-2.099 2.49,-2.417 2.421,-2.68 2.315,-2.888 2.211,-3.096 2.081,-3.259 1.925,-3.378 1.77,-3.496 1.573,-3.578 1.338,-3.623 1.102,-3.668 0.828,-3.682 0.517,-3.664 c -0.312,0.018 -0.614,0.039 -0.905,0.062 z m 0.58,-7.55 -0.378,0.041 c -0.356,0.038 -0.592,0.111 -0.708,0.217 -0.116,0.106 -0.178,0.257 -0.186,0.452 -0.009,0.195 0.02,0.602 0.087,1.222 l 0.188,1.749 0.313,-0.034 C 0.11,-3.926 0.263,-3.979 0.355,-4.061 0.449,-4.144 0.611,-4.363 0.844,-4.719 1.075,-5.075 1.296,-5.444 1.506,-5.828 2.16,-7.026 2.661,-7.778 3.009,-8.082 L 5.13,-8.31 5.158,-8.042 c -0.463,0.065 -0.851,0.24 -1.166,0.524 -0.314,0.285 -0.726,0.86 -1.236,1.726 -0.626,1.067 -1.095,1.697 -1.407,1.892 0.746,0.009 1.328,0.176 1.747,0.499 0.418,0.323 0.655,0.743 0.711,1.258 0.047,0.441 -0.057,0.836 -0.314,1.185 -0.256,0.349 -0.612,0.619 -1.067,0.809 -0.456,0.19 -1.06,0.325 -1.811,0.406 -0.442,0.048 -1.04,0.095 -1.796,0.14 L -2.313,0.46 -2.343,0.193 -2.209,0.179 c 0.399,-0.043 0.655,-0.106 0.768,-0.188 0.112,-0.083 0.176,-0.217 0.191,-0.403 0.016,-0.186 -0.011,-0.592 -0.078,-1.22 l -0.416,-3.864 c -0.07,-0.658 -0.133,-1.075 -0.188,-1.252 -0.053,-0.176 -0.15,-0.3 -0.289,-0.371 -0.139,-0.071 -0.377,-0.089 -0.714,-0.053 l -0.255,0.028 -0.03,-0.268 3.772,-0.405 z" /></g><g
                 id="g74"
                 transform="translate(72.9658,92.2666)"><path
                   id="path72"
                   style="fill:#231f20;fill-opacity:1;fill-rule:nonzero;stroke:none"
                   d="m 0,0 0.234,-3.65 -2.648,0.906 z m -3.27,-5.534 c -0.239,0.082 -0.416,0.207 -0.529,0.376 -0.113,0.168 -0.131,0.365 -0.054,0.59 0.072,0.21 0.37,0.61 0.892,1.201 l 0.357,0.41 2.847,-0.974 0.101,-1.584 c 0.032,-0.46 0.034,-0.731 0.007,-0.812 -0.055,-0.158 -0.155,-0.242 -0.3,-0.252 -0.146,-0.01 -0.399,0.047 -0.76,0.17 l -0.087,-0.254 2.947,-1.008 0.087,0.254 C 1.985,-7.301 1.811,-7.17 1.715,-7.024 1.618,-6.878 1.562,-6.704 1.545,-6.5 L 1.471,-5.598 1.001,1.213 0.786,1.287 -3.172,-3.171 c -0.285,-0.318 -0.447,-0.502 -0.484,-0.551 -0.429,-0.507 -0.756,-0.825 -0.981,-0.952 -0.224,-0.127 -0.511,-0.16 -0.86,-0.098 l -0.087,-0.254 2.228,-0.762 z" /></g><g
                 id="g78"
                 transform="translate(81.4033,81.2373)"><path
                   id="path76"
                   style="fill:#231f20;fill-opacity:1;fill-rule:nonzero;stroke:none"
                   d="m 0,0 -0.329,0.2 c -0.304,0.184 -0.485,0.35 -0.547,0.496 -0.061,0.147 -0.054,0.311 0.022,0.493 0.077,0.181 0.276,0.537 0.597,1.066 L 2.648,7.034 3.737,6.372 C 4.106,6.147 4.354,5.966 4.479,5.828 4.605,5.69 4.675,5.481 4.687,5.203 4.7,4.923 4.609,4.538 4.415,4.045 L 4.63,3.915 5.584,5.563 -0.987,9.558 -2.012,7.952 -1.781,7.812 c 0.33,0.387 0.625,0.645 0.885,0.775 0.258,0.13 0.475,0.17 0.65,0.121 C -0.07,8.658 0.235,8.501 0.671,8.236 L 1.675,7.625 -1.23,2.847 C -1.574,2.281 -1.809,1.93 -1.935,1.795 -2.061,1.659 -2.201,1.589 -2.357,1.583 -2.514,1.578 -2.736,1.663 -3.025,1.839 l -0.35,0.213 -0.14,-0.23 3.375,-2.052 z" /></g><g
                 id="g82"
                 transform="translate(86.1904,78.0684)"><path
                   id="path80"
                   style="fill:#231f20;fill-opacity:1;fill-rule:nonzero;stroke:none"
                   d="m 0,0 c -0.15,-0.106 -0.303,-0.146 -0.456,-0.118 -0.153,0.028 -0.353,0.16 -0.598,0.393 l -0.17,0.162 -0.185,-0.195 2.621,-2.501 0.185,0.194 -0.168,0.162 c -0.259,0.247 -0.403,0.448 -0.43,0.603 -0.027,0.155 0.015,0.313 0.128,0.472 0.112,0.16 0.383,0.465 0.813,0.916 L 4.423,2.899 C 4.878,3.375 5.181,3.663 5.331,3.762 5.481,3.86 5.623,3.891 5.754,3.854 5.886,3.817 6.093,3.665 6.375,3.396 L 6.497,3.278 6.683,3.473 4.062,5.974 3.876,5.78 3.999,5.663 C 4.289,5.386 4.454,5.18 4.493,5.046 4.532,4.912 4.501,4.767 4.399,4.61 4.299,4.453 4.03,4.146 3.595,3.69 L 0.911,0.879 C 0.454,0.4 0.15,0.107 0,0" /></g><g
                 id="g86"
                 transform="translate(94.9365,76.1611)"><path
                   id="path84"
                   style="fill:#231f20;fill-opacity:1;fill-rule:nonzero;stroke:none"
                   d="m 0,0 -3.579,-2.201 c -0.408,-0.251 -0.677,-0.394 -0.806,-0.43 -0.129,-0.036 -0.293,0.002 -0.491,0.112 -0.198,0.112 -0.408,0.321 -0.63,0.629 l -0.228,-0.141 1.548,-2.519 0.229,0.141 c -0.22,0.358 -0.334,0.659 -0.342,0.901 -0.007,0.243 0.039,0.421 0.139,0.534 0.098,0.114 0.343,0.29 0.731,0.529 l 4.684,2.881 -3.391,-8.665 0.131,-0.213 5.585,3.434 c 0.289,0.177 0.508,0.281 0.656,0.311 0.149,0.03 0.317,-0.011 0.504,-0.122 0.188,-0.112 0.381,-0.303 0.579,-0.574 l 0.23,0.141 -1.507,2.449 -0.229,-0.141 C 3.977,-3.209 4.082,-3.458 4.128,-3.69 4.175,-3.922 4.157,-4.105 4.075,-4.241 3.994,-4.375 3.804,-4.535 3.505,-4.718 L -0.532,-7.201 2.291,0.044 1.067,2.035 0.838,1.894 C 1.061,1.533 1.179,1.284 1.193,1.149 1.208,1.014 1.142,0.868 0.996,0.712 0.85,0.556 0.518,0.318 0,0" /></g><g
                 id="g90"
                 transform="translate(25.6475,32.7119)"><path
                   id="path88"
                   style="fill:#8a1f03;fill-opacity:1;fill-rule:nonzero;stroke:none"
                   d="m 0,0 -2.683,1.18 0.292,2.917 -1.951,-2.188 -2.683,1.18 1.477,-2.531 -1.951,-2.188 2.864,0.622 1.478,-2.531 0.293,2.916 z" /></g><g
                 id="g94"
                 transform="translate(102.0508,48)"><path
                   id="path92"
                   style="fill:#8a1f03;fill-opacity:1;fill-rule:nonzero;stroke:none"
                   d="m 0,0 c -0.689,-0.858 -1.596,-1.548 -2.572,-2.107 -1.967,-1.119 -4.182,-1.789 -6.414,-2.283 -1.738,-0.381 -3.504,-0.64 -5.28,-0.821 l -1.436,2.353 -0.201,-2.498 c -2.264,-0.165 -4.54,-0.248 -6.811,-0.216 l -3.21,0.111 c 0.349,0.769 0.618,1.565 0.82,2.385 0.545,-0.015 1.091,-0.034 1.638,-0.041 1.813,-0.019 3.628,0.013 5.442,0.131 1.813,0.123 3.628,0.322 5.419,0.735 0.805,0.188 1.604,0.439 2.377,0.774 l 0.7,-1.198 0.163,1.624 c 0.623,0.366 1.209,0.836 1.594,1.519 0.017,0.031 0.022,0.069 0.039,0.101 l 1.361,0.296 -1.106,0.487 c 0.035,0.195 0.066,0.391 0.058,0.586 -0.017,0.506 -0.155,0.985 -0.34,1.427 -0.401,0.862 -0.898,1.671 -1.58,2.333 -0.661,0.668 -1.434,1.234 -2.281,1.628 l -0.313,0.159 -0.324,0.129 c -0.217,0.083 -0.431,0.174 -0.65,0.251 -0.447,0.125 -0.885,0.284 -1.339,0.366 -1.804,0.403 -3.646,0.5 -5.466,0.442 -2.767,-0.093 -5.496,-0.475 -8.2,-0.967 -1.066,0.731 -2.32,1.106 -3.775,1.106 -0.252,0 -0.505,-0.012 -0.757,-0.032 3.468,1.276 7.013,2.353 10.648,2.987 1.138,0.174 2.279,0.325 3.418,0.476 l 1.721,0.104 c 0.572,0.032 1.145,0.092 1.719,0.058 l 1.718,-0.037 c 0.287,0.005 0.572,-0.033 0.856,-0.066 l 0.851,-0.097 0.853,-0.097 c 0.284,-0.029 0.559,-0.111 0.84,-0.164 0.554,-0.13 1.122,-0.215 1.667,-0.381 0.578,-0.158 1.147,-0.348 1.706,-0.563 0.077,-0.165 0.14,-0.325 0.237,-0.493 0.26,-0.45 0.415,-0.823 0.464,-1.12 0.012,-0.073 0.017,-0.157 0.017,-0.251 l 0.831,0.137 c 0.672,0.112 1.1,0.161 1.282,0.147 0.181,-0.013 0.321,-0.08 0.418,-0.2 0.096,-0.12 0.177,-0.366 0.238,-0.74 l 0.276,0.046 -0.078,0.472 C -2.544,8.842 -2.317,8.698 -2.108,8.531 -1.697,8.145 -1.251,7.789 -0.868,7.38 -0.473,6.981 -0.143,6.529 0.171,6.07 0.758,5.133 1.152,4.066 1.135,2.981 1.123,1.901 0.701,0.848 0,0 m -30.453,-5.005 -0.848,0.156 -1.697,0.314 c -1.14,0.175 -2.246,0.499 -3.362,0.78 -4.167,1.097 -8.177,2.721 -12.131,4.46 0.087,0.242 0.176,0.486 0.268,0.739 0.068,0.04 0.137,0.079 0.203,0.119 1.055,-0.49 2.111,-0.979 3.173,-1.456 1.654,-0.724 3.345,-1.448 5.153,-1.787 1.788,-0.328 3.584,-0.554 5.384,-0.756 1.515,-0.166 3.035,-0.297 4.555,-0.407 -0.161,-0.734 -0.379,-1.456 -0.642,-2.168 z m -29.477,0.612 c -2.955,-1.231 -5.978,-2.31 -9.057,-3.174 -0.858,-0.024 -1.804,-0.297 -2.711,-0.685 -0.47,-0.108 -0.936,-0.235 -1.407,-0.332 -4.504,-0.898 -9.181,-1.299 -13.679,-0.391 -2.238,0.447 -4.415,1.241 -6.323,2.473 -0.939,0.632 -1.81,1.367 -2.53,2.232 -0.722,0.862 -1.263,1.873 -1.542,2.949 -0.277,1.075 -0.27,2.222 0.064,3.286 0.326,1.066 0.96,2.028 1.75,2.829 0.098,0.101 0.188,0.209 0.295,0.303 l 0.324,0.273 c 0.219,0.179 0.423,0.378 0.666,0.527 l 0.703,0.481 0.747,0.415 c 0.245,0.146 0.504,0.267 0.767,0.379 l 0.783,0.349 c 0.543,0.183 1.072,0.405 1.626,0.555 0.166,0.049 0.334,0.083 0.501,0.128 l 1.542,-0.642 -0.458,-5.695 3.718,4.338 0.299,-0.125 C -84.5,5.608 -85.106,5.078 -85.626,4.455 -86.218,3.736 -86.695,2.91 -86.977,2.008 c -0.29,-0.898 -0.342,-1.878 -0.149,-2.811 0.185,-0.938 0.654,-1.806 1.288,-2.51 0.641,-0.703 1.408,-1.258 2.295,-1.624 1.791,-0.663 3.662,-0.623 5.473,-0.53 1.819,0.114 3.619,0.372 5.403,0.691 1.787,0.322 3.559,0.712 5.318,1.144 h 0.683 5.896 c 0.889,0 1.752,0.007 2.605,0.018 -0.587,-0.261 -1.171,-0.532 -1.765,-0.779 m -15.815,13.379 0.863,-0.062 0.176,-0.013 C -75.074,8.892 -75.442,8.87 -75.81,8.833 -77.6,8.648 -79.389,8.289 -81.071,7.604 l -0.783,1.282 0.278,0.324 c 1.945,0.049 3.899,-0.038 5.831,-0.224 m 10.706,-1.17 c 0.595,-0.123 1.182,-0.276 1.77,-0.423 -0.259,-0.163 -0.514,-0.321 -0.769,-0.479 -2.445,0.729 -4.932,1.307 -7.448,1.722 2.165,-0.078 4.328,-0.372 6.447,-0.82 m 10.304,-3.27 c 1.181,-0.475 2.346,-0.987 3.506,-1.511 -0.378,-0.212 -0.792,-0.4 -1.248,-0.561 -2.983,1.324 -5.993,2.599 -9.086,3.657 0.156,0.082 0.315,0.171 0.47,0.252 0.172,0.09 0.335,0.175 0.504,0.263 1.981,-0.611 3.934,-1.318 5.854,-2.1 m 6.581,-2.92 c 0.021,-0.009 0.042,-0.019 0.062,-0.028 -0.031,-0.019 -0.062,-0.036 -0.094,-0.055 0.011,0.027 0.022,0.056 0.032,0.083 m -7.689,0.152 C -56.436,1.726 -58.428,1.699 -61.819,1.699 H -64 h -1.051 -0.969 -3.15 c 2.526,1.603 4.96,3.021 7.311,4.273 3.042,-1.052 5.998,-2.325 8.935,-3.649 -0.856,-0.259 -1.82,-0.446 -2.919,-0.545 M -78.877,4.01 -80.84,7.224 c 1.606,0.675 3.331,1.052 5.068,1.261 0.984,0.112 1.973,0.163 2.964,0.17 l 0.499,-0.073 1.714,-0.249 c 0.57,-0.097 1.128,-0.245 1.693,-0.365 1.125,-0.26 2.26,-0.474 3.36,-0.831 l 1.266,-0.372 c -2.982,-1.845 -5.674,-3.411 -8.043,-4.662 -1.993,-1.024 -3.163,-1.684 -3.514,-1.979 -0.35,-0.297 -0.578,-0.768 -0.687,-1.413 l -0.161,-0.97 c -0.053,-0.269 -0.081,-0.458 -0.081,-0.565 0,-0.593 0.458,-0.861 1.373,-0.808 h 2.665 2.585 0.825 c -1.143,-0.241 -2.288,-0.471 -3.436,-0.671 -1.774,-0.304 -3.561,-0.549 -5.35,-0.648 -1.773,-0.086 -3.622,-0.091 -5.235,0.523 -1.563,0.679 -2.916,2.049 -3.255,3.739 -0.177,0.835 -0.139,1.717 0.124,2.542 0.253,0.826 0.69,1.595 1.242,2.273 0.542,0.661 1.183,1.24 1.886,1.74 z m 34.452,-0.449 c -0.029,-0.016 -0.058,-0.032 -0.088,-0.046 l -3.069,-1.62 c -0.064,-0.041 -0.132,-0.076 -0.196,-0.116 -0.091,0.041 -0.182,0.081 -0.273,0.122 0.106,0.282 0.211,0.563 0.324,0.856 z m 4.535,2.124 c -0.118,-0.266 -0.234,-0.524 -0.351,-0.783 -0.913,-0.235 -1.826,-0.473 -2.738,-0.715 1.023,0.514 2.053,1.012 3.089,1.498 m 2.373,-0.101 c 1.171,1.034 2.451,1.564 3.846,1.564 0.595,0 1.113,-0.115 1.585,-0.299 -1.816,-0.397 -3.627,-0.819 -5.431,-1.265 m -2.785,-3.191 c 0.239,0 0.418,0.119 0.538,0.357 0.548,0.938 1.133,1.711 1.746,2.349 2.174,0.512 4.353,0.998 6.54,1.437 1.396,-0.903 2.11,-2.823 2.11,-5.807 0,-1.034 -0.104,-2.044 -0.288,-3.038 -1.536,0.091 -3.073,0.205 -4.605,0.352 -1.794,0.178 -3.589,0.381 -5.36,0.684 -1.76,0.305 -3.428,0.993 -5.088,1.695 -1.004,0.429 -2.001,0.876 -2.998,1.325 0.052,0.032 0.105,0.062 0.157,0.093 1.164,0.609 2.332,1.215 3.503,1.812 l 3.073,0.748 c 0.188,0.045 0.377,0.088 0.566,0.133 -0.145,-0.317 -0.291,-0.643 -0.433,-0.951 -0.118,-0.278 -0.178,-0.496 -0.178,-0.654 0,-0.357 0.239,-0.535 0.717,-0.535 m 29.589,0.381 -2.683,1.18 1.477,-2.532 -1.951,-2.188 2.864,0.623 0.441,-0.753 c -0.703,-0.298 -1.436,-0.541 -2.192,-0.719 -1.731,-0.411 -3.519,-0.619 -5.309,-0.75 -1.793,-0.128 -3.594,-0.17 -5.395,-0.162 -0.499,0.005 -0.997,0.019 -1.496,0.029 0.189,0.943 0.284,1.92 0.284,2.93 0,2.535 -0.644,4.566 -1.931,6.092 -0.243,0.287 -0.503,0.538 -0.775,0.77 2.549,0.416 5.111,0.728 7.681,0.781 1.789,0.026 3.584,-0.075 5.311,-0.462 0.437,-0.079 0.85,-0.233 1.274,-0.352 0.207,-0.074 0.408,-0.159 0.612,-0.239 l 0.306,-0.121 0.291,-0.149 c 0.792,-0.37 1.498,-0.894 2.103,-1.507 0.234,-0.226 0.439,-0.479 0.629,-0.743 z m 2.062,-2.405 c -0.181,-0.21 -0.394,-0.397 -0.628,-0.567 l 0.044,0.44 z m 0.547,1.258 -0.951,0.418 0.2,1.984 c 0.181,-0.298 0.349,-0.605 0.494,-0.916 0.21,-0.483 0.302,-0.997 0.257,-1.486 m 2.773,8.884 c -0.034,0.008 -0.074,0.007 -0.106,0.017 -0.088,0.028 -0.172,0.087 -0.256,0.141 0.121,-0.053 0.243,-0.102 0.362,-0.158 m -64.503,-27.072 c -2.199,-2.434 -4.428,-3.724 -5.689,-3.724 -0.352,0 -0.646,0.088 -0.822,0.293 -0.234,0.264 -0.381,0.616 -0.381,1.115 0,1.319 0.997,3.401 3.637,5.777 1.877,1.702 4.281,2.962 6.305,3.49 0.382,-1.701 -0.762,-4.428 -3.05,-6.951 M 0.711,6.416 C 0.373,6.911 0.015,7.395 -0.404,7.818 -0.812,8.252 -1.274,8.62 -1.708,9.023 -2.092,9.331 -2.498,9.608 -2.907,9.878 l -0.335,2.021 -0.277,-0.046 0.031,-0.185 c 0.05,-0.307 0.061,-0.522 0.033,-0.646 -0.029,-0.123 -0.109,-0.224 -0.24,-0.303 -0.078,-0.047 -0.224,-0.092 -0.405,-0.136 -0.753,0.411 -1.528,0.776 -2.333,1.067 -0.058,0.158 -0.108,0.321 -0.137,0.497 -0.13,0.781 0.051,1.482 0.543,2.104 0.491,0.623 1.43,1.048 2.817,1.278 1.392,0.231 2.405,0.118 3.041,-0.337 0.637,-0.455 1.016,-1.05 1.137,-1.784 0.118,-0.711 -0.017,-1.354 -0.403,-1.929 -0.386,-0.576 -0.972,-0.986 -1.756,-1.23 l 0.045,-0.277 2.612,0.432 -0.046,0.277 c -0.317,-0.017 -0.621,0.016 -0.911,0.098 0.655,0.811 0.896,1.74 0.723,2.785 -0.201,1.215 -0.781,2.106 -1.74,2.673 -0.959,0.568 -1.997,0.76 -3.115,0.574 -1.13,-0.187 -2.002,-0.712 -2.615,-1.576 -0.614,-0.863 -0.827,-1.855 -0.642,-2.973 0.028,-0.168 0.091,-0.344 0.143,-0.516 -0.416,0.142 -0.833,0.284 -1.258,0.393 -0.563,0.164 -1.146,0.246 -1.717,0.373 -0.288,0.051 -0.572,0.132 -0.863,0.159 l -0.872,0.09 -0.872,0.09 c -0.291,0.03 -0.581,0.065 -0.873,0.058 l -1.75,0.019 c -0.584,0.028 -1.164,-0.039 -1.745,-0.078 l -1.741,-0.134 c -1.149,-0.173 -2.3,-0.346 -3.443,-0.544 -3.941,-0.763 -7.75,-2.029 -11.463,-3.502 -1.528,-0.263 -3.036,-0.899 -4.524,-1.895 -0.075,-0.034 -0.15,-0.068 -0.224,-0.103 l 4.553,10.997 c 1.902,-0.278 3.229,-0.476 3.982,-0.595 2.456,-0.356 4.339,-0.534 5.647,-0.534 1.386,0 2.437,0.335 3.15,1.01 0.555,0.554 1.169,1.367 1.843,2.437 0.674,1.07 1.011,1.763 1.011,2.08 0,0.277 -0.12,0.416 -0.357,0.416 -0.199,0 -0.506,-0.307 -0.922,-0.921 -0.416,-0.615 -0.921,-0.921 -1.515,-0.921 -0.476,0 -1.09,0.039 -1.843,0.119 l -10.343,1.07 c -0.317,0 -0.534,-0.159 -0.653,-0.476 -2.282,-6.036 -4.375,-11.197 -6.286,-15.501 l -1.606,-0.762 c -0.707,-0.319 -1.393,-0.678 -2.077,-1.041 -1.387,-0.368 -2.773,-0.736 -4.157,-1.11 0.509,1.32 1.088,2.757 1.747,4.331 0.161,0.27 0.242,0.485 0.242,0.647 0,0.43 -0.271,0.646 -0.808,0.646 -0.215,0 -0.378,-0.107 -0.484,-0.319 -0.485,-0.799 -0.97,-1.611 -1.454,-2.436 -0.484,-0.825 -1.158,-1.582 -2.02,-2.274 -0.162,-0.125 -0.36,-0.226 -0.541,-0.34 -0.391,0.173 -0.78,0.349 -1.175,0.512 -0.831,0.358 -1.663,0.713 -2.505,1.043 -1.868,0.749 -3.764,1.428 -5.686,2.026 6.505,3.399 10.619,5.828 12.33,7.28 2.908,2.476 4.363,5.331 4.363,8.562 0,2.692 -0.93,4.832 -2.788,6.421 -1.857,1.587 -4.375,2.382 -7.551,2.382 -4.147,0 -7.566,-1.211 -10.258,-3.634 -2.855,-2.585 -4.28,-5.52 -4.28,-8.804 0,-1.024 0.363,-1.898 1.089,-2.625 0.728,-0.727 1.602,-1.09 2.625,-1.09 2.531,0 3.797,1.264 3.797,3.796 0,1.345 -0.485,2.1 -1.454,2.261 -1.292,0.215 -1.938,0.699 -1.938,1.454 0,1.723 0.968,3.365 2.907,4.927 1.938,1.561 3.984,2.342 6.139,2.342 3.877,0 5.815,-2.1 5.815,-6.299 0,-3.77 -1.857,-7.351 -5.573,-10.743 -1.131,-1.023 -3.568,-2.719 -7.31,-5.088 -0.207,-0.131 -0.397,-0.247 -0.601,-0.375 -0.654,0.17 -1.307,0.341 -1.967,0.486 -0.886,0.188 -1.781,0.328 -2.672,0.494 -0.898,0.118 -1.801,0.209 -2.701,0.317 -0.906,0.039 -1.813,0.093 -2.72,0.119 -0.186,-10e-4 -0.374,-0.009 -0.56,-0.012 -0.693,0.089 -1.384,0.19 -2.079,0.256 -1.155,0.078 -2.308,0.203 -3.466,0.243 l -1.739,0.033 -0.423,-0.011 3.218,3.756 -5.557,-1.325 -2.977,4.877 -0.458,-5.695 -5.558,-1.324 3.197,-1.33 C -89.511,8.421 -89.531,8.417 -89.553,8.412 -90.117,8.267 -90.66,8.047 -91.216,7.868 L -92.021,7.521 C -92.292,7.41 -92.559,7.29 -92.813,7.143 l -0.775,-0.418 -0.734,-0.489 c -0.253,-0.152 -0.47,-0.355 -0.7,-0.539 l -0.342,-0.281 c -0.112,-0.097 -0.209,-0.21 -0.314,-0.314 -0.84,-0.83 -1.53,-1.845 -1.898,-2.992 -0.372,-1.142 -0.406,-2.396 -0.107,-3.559 0.296,-1.164 0.874,-2.244 1.632,-3.158 0.758,-0.918 1.666,-1.69 2.642,-2.352 0.984,-0.653 2.049,-1.164 3.138,-1.601 1.101,-0.406 2.23,-0.734 3.38,-0.948 4.552,-0.878 9.229,-0.469 13.696,0.504 -0.672,-0.392 -1.266,-0.806 -1.683,-1.163 -1.555,-1.35 -3.197,-3.344 -3.402,-3.842 -0.117,-0.294 0.029,-0.411 0.176,-0.382 0.118,0 0.235,0.088 0.293,0.206 0.206,0.293 1.378,1.877 3.167,3.548 0.861,0.804 2.219,1.652 3.571,2.163 0.545,0.142 1.093,0.272 1.634,0.428 0.195,0.025 0.389,0.049 0.573,0.049 0.557,0 1.055,-0.117 1.408,-0.41 0.205,-0.176 0.381,-0.411 0.498,-0.675 -2.258,-0.587 -4.663,-2.053 -6.423,-3.607 -2.346,-2.112 -3.871,-4.517 -3.871,-6.248 0,-0.556 0.176,-1.055 0.528,-1.436 0.323,-0.322 0.763,-0.499 1.261,-0.499 1.467,0 3.637,1.379 6.042,4.048 2.229,2.492 3.607,5.395 3.138,7.332 0.528,0.117 1.026,0.176 1.467,0.176 0.703,0 1.29,-0.147 1.671,-0.47 0.352,-0.293 0.469,-0.645 0.469,-1.056 0,-0.909 -0.675,-2.082 -1.437,-3.079 -1.114,-1.467 -4.194,-4.429 -5.485,-6.511 -0.732,-1.202 -1.202,-2.727 -1.202,-4.047 0,-0.997 0.264,-1.847 0.939,-2.317 0.44,-0.322 0.938,-0.469 1.408,-0.469 1.173,0 2.375,0.791 3.226,1.466 0.997,0.763 2.727,2.523 3.578,3.432 -2.787,-3.93 -5.836,-8.095 -7.83,-9.619 -2.025,-1.555 -4.078,-2.318 -5.779,-2.318 -1.261,0 -2.345,0.411 -3.05,1.232 -0.439,0.499 -0.615,1.174 -0.615,1.906 0,1.907 1.29,4.224 2.668,5.104 0.411,0.234 0.441,0.439 0.323,0.527 -0.087,0.059 -0.323,0.03 -0.528,-0.117 -1.965,-1.378 -2.991,-3.577 -2.991,-5.573 0,-1.202 0.351,-2.345 1.114,-3.196 1.056,-1.202 2.786,-1.994 4.81,-1.994 1.642,0 3.461,0.527 5.22,1.848 3.901,2.932 6.012,9.384 8.74,13.901 2.756,4.516 5.25,6.481 6.481,7.771 0.88,0.939 2.317,2.2 2.845,3.08 0.205,0.352 0.264,0.645 0.058,0.821 -0.234,0.205 -0.616,0.029 -1.143,-0.352 -1.144,-0.909 -2.903,-3.02 -4.985,-5.572 -0.617,-0.763 -1.497,-1.965 -2.494,-3.373 -0.88,-1.026 -1.877,-2.17 -2.991,-3.372 -3.402,-3.813 -5.396,-5.191 -6.628,-5.191 -0.382,0 -0.675,0.117 -0.938,0.351 -0.353,0.294 -0.499,0.646 -0.499,1.057 0,0.879 0.704,1.994 1.584,3.108 1.26,1.613 3.636,3.725 5.044,5.865 0.938,1.438 1.789,3.227 1.789,4.722 0,0.821 -0.264,1.555 -0.851,2.082 -0.703,0.616 -1.612,0.88 -2.64,0.88 -0.498,0 -0.997,-0.059 -1.524,-0.176 -0.146,0.322 -0.352,0.587 -0.616,0.821 -0.297,0.26 -0.668,0.417 -1.069,0.504 2.817,0.877 5.581,1.92 8.281,3.096 0.685,0.301 1.364,0.618 2.045,0.933 2.89,0.04 5.568,0.14 8.035,0.302 0.273,1.026 0.67,2.261 1.175,3.682 3.934,-1.777 7.94,-3.447 12.124,-4.593 1.938,-0.533 3.909,-0.958 5.897,-1.278 -0.421,-1.038 -0.944,-2.055 -1.585,-3.046 -2.147,-3.288 -4.773,-4.934 -7.876,-4.934 -1.352,0 -2.446,0.279 -3.282,0.832 -0.835,0.556 -1.253,1.27 -1.253,2.141 0,0.437 0.237,0.773 0.713,1.01 1.466,0.675 2.199,1.447 2.199,2.318 0,0.635 -0.248,1.18 -0.743,1.635 -0.495,0.456 -1.1,0.684 -1.813,0.684 -0.871,0 -1.604,-0.367 -2.199,-1.1 -0.594,-0.732 -0.891,-1.674 -0.891,-2.823 0,-1.625 0.704,-2.992 2.11,-4.102 1.406,-1.109 3.159,-1.664 5.26,-1.664 4.121,0 7.698,1.485 10.729,4.458 1.283,1.257 2.277,2.616 3.017,4.065 1.159,-0.087 2.321,-0.134 3.483,-0.139 2.257,-0.041 4.513,0.03 6.767,0.183 l -0.152,-1.895 -4.897,-1.166 4.647,-1.935 -0.404,-5.016 3.276,3.821 4.646,-1.933 -2.622,4.295 3.274,3.822 -4.895,-1.167 -0.822,1.347 c 1.694,0.173 3.382,0.419 5.053,0.778 1.143,0.236 2.272,0.548 3.385,0.915 1.106,0.389 2.194,0.845 3.222,1.435 1.023,0.591 1.993,1.324 2.753,2.273 0.77,0.931 1.262,2.143 1.271,3.381 0.017,1.242 -0.433,2.427 -1.071,3.441" /></g></g></g></g></g></g></g></svg>