<svg xmlns="http://www.w3.org/2000/svg" viewBox="0 0 580.32 129.66"><defs><style>.cls-1{fill:#8a1f03;}.cls-2{fill:#231f20;}.cls-3{fill:#7c1113;}.cls-4,.cls-6{font-size:11.32px;fill:#8a221b;font-family:TimesNewRomanPSMT, Times New Roman;}.cls-5,.cls-6{letter-spacing:0.02em;}.cls-7{letter-spacing:0.02em;}.cls-8{letter-spacing:0.02em;}.cls-9{letter-spacing:0.02em;}.cls-10{letter-spacing:0.02em;}.cls-11{letter-spacing:0em;}</style></defs><title>Asset 1</title><g id="Layer_2" data-name="Layer 2"><g id="Layer_1-2" data-name="Layer 1"><path class="cls-1" d="M339.37,0h-.63c-13.29,0-26.29,12.1-38.46,24.5a.72.72,0,0,0,1,1.06c11.84-9.76,24.48-19.29,37.37-19.29a23.33,23.33,0,0,1-.18,46.66c-14.52,0-28.46-13-40.76-24.52l-1.43-1.3s-.63-.61-.63-.61c-13.95-13-28.36-26.5-43-26.5h-.63a29.59,29.59,0,1,0,0,59.18l.88,0c13.37-.08,26.44-12.26,38.69-24.72a.71.71,0,0,0-1-1c-11.9,9.82-24.61,19.41-37.67,19.5a23.33,23.33,0,0,1-.19-46.66c13.3,0,26.35,11.18,40.82,24.7l2.34,2.17c13.63,12.76,27.74,26,42.53,26h1a29.59,29.59,0,0,0,0-59.18Z"/><polygon class="cls-2" points="296.93 102.56 293.28 102.56 290.75 95.59 288.22 102.56 284.55 102.56 276.88 81.46 279.68 81.46 286.4 99.82 289.34 91.73 285.58 81.46 288.39 81.46 290.75 87.87 293.05 81.46 295.88 81.46 292.14 91.76 295.09 99.82 301.78 81.46 304.6 81.46 296.93 102.56"/><rect class="cls-2" x="313.91" y="81.46" width="2.64" height="21.1"/><polygon class="cls-2" points="328.5 102.56 328.5 81.46 331.14 81.46 331.14 99.93 341.71 99.93 341.71 102.56 328.5 102.56"/><polygon class="cls-2" points="364.25 102.56 364.25 93.35 353.66 93.35 353.66 102.56 351.02 102.56 351.02 81.46 353.66 81.46 353.66 90.72 364.25 90.72 364.25 81.46 366.88 81.46 366.88 102.56 364.25 102.56"/><polygon class="cls-2" points="378.83 102.56 378.83 81.46 392.03 81.46 392.03 84.08 381.46 84.08 381.46 90.43 389.4 90.43 389.4 93.06 381.46 93.06 381.46 99.93 392.03 99.93 392.03 102.56 378.83 102.56"/><polygon class="cls-2" points="403.99 102.56 403.99 81.46 406.62 81.46 406.62 99.93 417.19 99.93 417.19 102.56 403.99 102.56"/><polygon class="cls-2" points="445 102.56 445 87.78 438.52 102.56 435.63 102.56 429.16 87.78 429.16 102.56 426.52 102.56 426.52 81.46 429.27 81.46 437.08 99.27 444.88 81.46 447.63 81.46 447.63 102.56 445 102.56"/><rect class="cls-2" x="459.61" y="81.46" width="2.63" height="21.1"/><path class="cls-1" d="M153.06,83c0-4-2.06-7.76-6.3-11.55a45.06,45.06,0,0,0-10.33-7,38.91,38.91,0,0,0-15.34-4.11,14.36,14.36,0,0,0-8.26,1.85,7,7,0,0,0-3.62,4.86h0s-.15,1.66-.15,1.66a17.26,17.26,0,0,0,.74,5,8.9,8.9,0,0,0,2.39,4.25,1.2,1.2,0,0,0,.91.57h.27l.29-.34.15-.18,0-.18-.32-.88A14.13,14.13,0,0,1,111.41,69l.13-1.77c.56-3.26,3.21-4.92,7.84-4.92a33.08,33.08,0,0,1,13.77,3.24,45.51,45.51,0,0,1,11.9,8.09c3.2,3.05,4.82,6.32,4.82,9.71a5.91,5.91,0,0,1-3.44,5.71,17.15,17.15,0,0,1-8,1.75,9.12,9.12,0,0,1-4-.7l-.06,0-.05,0c-.46-.12-.55-.28-.6-.43l-.22-.64-.61.3a3.41,3.41,0,0,0-.81.53l0-.06a122.88,122.88,0,0,0,6.27-14.61,3.54,3.54,0,0,0,.08-1.49c0-.45-.11-1.4-.83-1.4h-.37l-.23.41-.06.08,0,.11a101.26,101.26,0,0,1-8.39,17.72c-5.26,9.15-8.07,11.69-9.51,12.22a3.75,3.75,0,0,1-4.52-1.24c-.4-.4-.66-.66-1.1-.66a.8.8,0,0,0-.83.88,2.1,2.1,0,0,0,.39,1,6,6,0,0,0,2.47,2.15,4.72,4.72,0,0,0,1.7.31,7.47,7.47,0,0,0,3.57-.88c3.5-1.94,7.05-6.41,10.86-13.61.13,1.72,5.14,1.81,6.16,1.81A25.41,25.41,0,0,0,147.11,91C151.06,89.41,153.06,86.72,153.06,83Z"/><path class="cls-1" d="M162.77,89a.94.94,0,0,0,1-.09,2.52,2.52,0,0,0,1.26-1.7v-.37l-.38-.26a5.07,5.07,0,0,0-2.49-.34H162l-.1,0A22.22,22.22,0,0,0,157,89.61a37,37,0,0,0-4,3.75c.76-1.2,1.83-2.74,3.28-4.7a.87.87,0,0,0,.24-.63,1.1,1.1,0,0,0-.14-.49,1,1,0,0,0-.9-.6.75.75,0,0,0-.56.21,35.45,35.45,0,0,1-3.42,1.93l-.37.14.05.15,0,.8.1.35a2.67,2.67,0,0,1-.24.95,80.72,80.72,0,0,1-6.24,10.91s-.11.91-.11,1a.74.74,0,0,0,.54.55.73.73,0,0,0,.66-.23l1.82-.89a1.44,1.44,0,0,0,.68-.59h0C152,96.27,156.13,92,160.71,89.45A2.51,2.51,0,0,1,162.77,89Z"/><path class="cls-3" d="M144.65,103.47l0-.12s0,0,0,0Z"/><path class="cls-3" d="M156.35,87.46s0,.07,0,.09,0,0,0,.06Z"/><path class="cls-1" d="M179.52,89.59h0c0-.06-.11-.56-.11-.56l0-.07a3,3,0,0,1,1.3-.2c1,0,1.32-.47,1.32-.89s-.17-.78-1.32-.78l-4.58-.15-1.46,0-.21-.13a4.73,4.73,0,0,0-2.47-.92A3.88,3.88,0,0,0,169.59,87l-.23.1h0a6.41,6.41,0,0,0-.92,0l-.88,0c-.54,0-2,.06-2,1.21v0c0,.62.57,1.06,1.3,1.5-4.12,5.08-6.25,9-6.31,11.75h0a2.24,2.24,0,0,0,.84,1.66,2.58,2.58,0,0,0,2,.64c2.85-.38,6.15-2.21,10.07-5.57s5.81-6.18,6-8.8M163,102.14a.36.36,0,0,1-.06-.25,1.58,1.58,0,0,1,.21-.75A32.39,32.39,0,0,1,170.93,90l.5-.3-.35,0,.14,0h.33a7.74,7.74,0,0,1,3.72-.4c.9.09,1.18.32,1.27.45s.12.17,0,.49c-.45,2.18-2.23,4.67-5.3,7.42s-5.42,4.21-7.46,4.52C163.22,102.28,163.06,102.16,163,102.14Z"/><polygon class="cls-3" points="222.81 103.47 222.82 103.35 222.82 103.35 222.81 103.47"/><path class="cls-1" d="M241.89,89a2.51,2.51,0,0,0,1.26-1.7v-.37l-.37-.26a5.13,5.13,0,0,0-2.48-.34h-.11l-.1,0a22.12,22.12,0,0,0-4.91,3.28,36.55,36.55,0,0,0-4,3.75c.76-1.2,1.83-2.74,3.29-4.7a.88.88,0,0,0,.23-.63,1.06,1.06,0,0,0-.14-.48,1,1,0,0,0-.91-.6.71.71,0,0,0-.55.21,37.22,37.22,0,0,1-3.43,1.93l-.36.14.05.15,0,.8.12.37a2.87,2.87,0,0,1-.24.93,80.67,80.67,0,0,1-6.24,10.91s-.12.95-.12,1a.72.72,0,0,0,.55.55.73.73,0,0,0,.6-.21l1.88-.91a1.46,1.46,0,0,0,.67-.59h0c3.61-5.93,7.77-10.22,12.36-12.75,1.21-.63,1.75-.53,2.05-.41A.93.93,0,0,0,241.89,89Z"/><path class="cls-3" d="M234.52,87.46s0,.06,0,.09,0,0,0,.06Z"/><path class="cls-1" d="M260.77,87.09l-4.57-.15-1.48,0-.2-.12a4.77,4.77,0,0,0-2.49-.93A3.91,3.91,0,0,0,249.67,87l-.23.1a6,6,0,0,0-.93,0l-.88,0c-.54,0-2,.06-2,1.21v0c0,.62.57,1.06,1.3,1.5-4.12,5.08-6.26,9-6.3,11.75h0a2.24,2.24,0,0,0,.84,1.66,2.59,2.59,0,0,0,2,.64c2.86-.38,6.16-2.21,10.07-5.57s5.81-6.18,6-8.8h0c0-.06-.11-.57-.11-.57l0-.07a3,3,0,0,1,1.31-.2c1,0,1.3-.47,1.3-.89s-.17-.78-1.3-.78m-9.41,10.54c-2.91,2.69-5.43,4.21-7.47,4.52-.59.12-.75,0-.77,0a.37.37,0,0,1-.06-.25,1.59,1.59,0,0,1,.2-.75A32.32,32.32,0,0,1,251,90s.5-.3.5-.3l-.2,0h.33a7.75,7.75,0,0,1,3.72-.4c.9.09,1.18.32,1.27.45s.12.16,0,.49C256.2,92.4,254.42,94.89,251.36,97.64Z"/><path class="cls-1" d="M267.06,50.15c0,4.22.25,3.15-6.46,7.54-6.25,4.09-16.81,9.61-24.18,12.09-5.61,1.89-13.46,4.14-19,4.14l-2.61-.1C220.41,64.36,227.3,55.1,234,48.61l-2-1.26A131.86,131.86,0,0,0,215.7,67.63a14.08,14.08,0,0,0-7.4,3.75,2,2,0,0,0-.52,1.32,3.3,3.3,0,0,0,2.28,3l.6.1c-4.92,8.51-9.83,20.83-12.19,25.88,0,.07-.11.67-.11.67a2.34,2.34,0,0,0,0,.47,2.49,2.49,0,0,0-1.08,1l0,.08,0,.08a1,1,0,0,0,.19.8,1,1,0,0,0,.78.35l.88-.31a4,4,0,0,1,1.22-.47,1.93,1.93,0,0,1,1.63.32,4.08,4.08,0,0,1,.88,3c-.49,3.18-2.77,7-6.75,11.17s-7.91,7-11.7,8.18a10.85,10.85,0,0,1-3.55.6c-3.54,0-5.26-2.52-5.26-7.7l0-2.25c.52-5.72,3-13.17,7.42-22.13a126.35,126.35,0,0,1,9.12-15.27,1.17,1.17,0,0,1,.8-.51l7.53-.41,6.59-.35a1.94,1.94,0,0,0,1.53-1.55V77h-.18l-1-.31h-.77l-5.52,0h-6.84l.09-.15c6.77-9.29,11.63-14.29,14.46-14.88.38-.1,1-.27,1-.92a1,1,0,0,0-1.12-1,4.67,4.67,0,0,0-1.82.45l-1.09.4c-1.95.72-2.63,1.05-2.93,1.42l-1.68,1.94a114.77,114.77,0,0,0-9.95,12.61,1.52,1.52,0,0,0,0,.16c-4.11,0-4.71.44-4.94.89l-.05,1a2.74,2.74,0,0,0,1.69,1.34.79.79,0,0,1,.49.78,1.41,1.41,0,0,1-.42,1,105.15,105.15,0,0,0-9.83,18.08c-3.72,8.51-5.52,14.89-5.52,19.5,0,3,.35,5.36,2.1,7.31h0a8.87,8.87,0,0,0,6.73,3.05c4.33,0,9.22-2.51,14.94-7.69s8.71-9.78,9.29-14c.11-.84-.34-2-1.42-3.65a4.59,4.59,0,0,0-2.83-2.26c1.43-1.62,3.32-3.58,5.67-5.84A41.78,41.78,0,0,1,214.69,90a1.29,1.29,0,0,1,.7-.27h.17a.77.77,0,0,1-.12.33c-3.06,4.05-4.85,7.31-5.45,10a2.52,2.52,0,0,0,1.11,2.67,3.34,3.34,0,0,0,2.24,1c2.12,0,5.22-1.72,9.77-5.42l.4-.39.37-.37-.3-.42-.47-.66-.48.34,0,0-.43.25c-4.43,3.36-6.58,4.07-7.61,4.07-.61,0-.73-.23-.73-.68,0-.61.31-2.19,2.37-5.94a42.5,42.5,0,0,1,3.72-5.74s.19-.65.19-.65a1.74,1.74,0,0,0-.65-1.22,1.77,1.77,0,0,0-1.24-.5,6.49,6.49,0,0,0-2.18.78c-1.63.31-4.3,2.22-6.31,3.85s-3.83,3.27-5.72,5.09c2.7-4.83,6.9-15.72,9.6-20.28l3,.09c13,0,29-6.48,41.54-14.3,3.73-2.32,11.35-7.91,13.91-9.77,2.4-1.74,3.23-3.07,3.39-4.31l-8.36,2.56M211.82,73.8l-1.28-.16c-.57-.08-.57-.3-.57-.38a.63.63,0,0,1,.21-.51,11,11,0,0,1,4.1-2.84Z"/><text class="cls-4" transform="translate(213.49 122.15) scale(1.31 1)"><tspan class="cls-5">C</tspan><tspan x="7.77" y="0">E</tspan></text><text class="cls-4" transform="translate(232.94 122.15) scale(1.31 1)">R</text><text class="cls-6" transform="translate(242.2 122.15) scale(1.31 1)">T<tspan class="cls-7" x="7.13" y="0">IFI</tspan><tspan class="cls-8" x="21.58" y="0">E</tspan><tspan class="cls-9" x="28.71" y="0">D</tspan><tspan class="cls-8" x="37.09" y="0"> </tspan><tspan class="cls-10" x="40.14" y="0">PU</tspan><tspan x="55.02" y="0">BL</tspan><tspan class="cls-9" x="69.92" y="0">I</tspan><tspan class="cls-11" x="73.9" y="0">C</tspan></text><text class="cls-4" transform="translate(352.09 122.15) scale(1.31 1)"><tspan class="cls-9">A</tspan><tspan class="cls-5" x="8.38" y="0">CC</tspan><tspan class="cls-9" x="23.92" y="0">OU</tspan><tspan x="40.68" y="0">N</tspan></text><text class="cls-4" transform="translate(416.2 122.15) scale(1.31 1)">T</text><text class="cls-4" transform="translate(424.33 122.15) scale(1.31 1)"><tspan class="cls-9">AN</tspan><tspan class="cls-5" x="16.76" y="0">T</tspan><tspan x="23.89" y="0">S</tspan></text><polygon class="cls-1" points="0 35.08 0 24.14 6.84 24.14 6.84 25.51 1.37 25.51 1.37 28.79 5.47 28.79 5.47 30.17 1.37 30.17 1.37 33.71 6.84 33.71 6.84 35.08 0 35.08"/><polygon class="cls-1" points="18.26 25.51 18.26 35.08 16.89 35.08 16.89 25.51 13.48 25.51 13.48 24.14 21.68 24.14 21.68 25.51 18.26 25.51"/><polygon class="cls-1" points="28.32 35.08 28.32 24.14 35.16 24.14 35.16 25.51 29.69 25.51 29.69 28.79 33.79 28.79 33.79 30.17 29.69 30.17 29.69 33.71 35.16 33.71 35.16 35.08 28.32 35.08"/><path class="cls-1" d="M50.12,35.08l-2.75-4.8H44.2v4.8H42.83V24.15h5.8a3.06,3.06,0,0,1,2.27,5.13,3,3,0,0,1-2,1l2.77,4.8Zm.21-7.86a1.73,1.73,0,0,0-1.7-1.7H44.2v3.4h4.44a1.65,1.65,0,0,0,1.2-.5,1.63,1.63,0,0,0,.5-1.2"/><polygon class="cls-1" points="65.54 35.08 60.06 26.65 60.06 35.08 58.7 35.08 58.7 24.14 60.06 24.14 65.54 32.56 65.54 24.14 66.91 24.14 66.91 35.08 65.54 35.08"/><path class="cls-1" d="M81.57,35.08,80.82,33H75.4l-.75,2.05H73.19l4-10.93h1.89l4,10.93Zm-3.46-9.52-2.23,6.1h4.45Z"/><polygon class="cls-1" points="89.34 35.08 89.34 24.14 90.71 24.14 90.71 33.71 96.18 33.71 96.18 35.08 89.34 35.08"/><polygon class="cls-1" points="116.68 35.08 114.8 35.08 110.82 24.14 112.27 24.14 115.74 33.66 119.2 24.14 120.67 24.14 116.68 35.08"/><path class="cls-1" d="M133,35.08,132.2,33h-5.43L126,35.08h-1.45l4-10.93h1.89l4,10.93Zm-3.46-9.52-2.23,6.1h4.44Z"/><polygon class="cls-1" points="140.72 35.08 140.72 24.14 142.09 24.14 142.09 33.71 147.56 33.71 147.56 35.08 140.72 35.08"/><path class="cls-1" d="M161.43,33.9a4.44,4.44,0,0,1-6.27,0,4.25,4.25,0,0,1-1.3-3.13V24.14h1.37v6.63a3.07,3.07,0,1,0,6.14,0V24.14h1.37v6.62a4.26,4.26,0,0,1-1.3,3.13"/><polygon class="cls-1" points="170.41 35.08 170.41 24.14 177.25 24.14 177.25 25.51 171.78 25.51 171.78 28.79 175.88 28.79 175.88 30.17 171.78 30.17 171.78 33.71 177.25 33.71 177.25 35.08 170.41 35.08"/><path class="cls-1" d="M191,32.15a2.9,2.9,0,0,1-.91,2.15,3,3,0,0,1-2.18.89,2.94,2.94,0,0,1-1.92-.69,3,3,0,0,1-1-1.77l1.32-.35a1.74,1.74,0,0,0,.55,1,1.58,1.58,0,0,0,1.09.42,1.7,1.7,0,0,0,1.21-.5,1.59,1.59,0,0,0,.51-1.19,1.79,1.79,0,0,0-1.22-1.63L187.27,30l-1.13-.51A2.75,2.75,0,0,1,184.91,27a2.88,2.88,0,0,1,.92-2.16A3,3,0,0,1,188,24a2.89,2.89,0,0,1,1.93.71,3,3,0,0,1,1,1.78l-1.35.34a1.68,1.68,0,0,0-.53-1,1.53,1.53,0,0,0-1.09-.42,1.71,1.71,0,0,0-1.22.5,1.57,1.57,0,0,0-.51,1.18,1.82,1.82,0,0,0,1.22,1.66l2.25,1A2.74,2.74,0,0,1,191,32.15"/><rect class="cls-1" x="392.26" y="24.16" width="1.37" height="10.93"/><polygon class="cls-1" points="405.51 35.09 400.03 26.67 400.03 35.09 398.66 35.09 398.66 24.16 400.03 24.16 405.51 32.58 405.51 24.16 406.88 24.16 406.88 35.09 405.51 35.09"/><polygon class="cls-1" points="413.27 25.53 413.27 28.81 417.38 28.81 417.38 30.18 413.27 30.18 413.27 35.09 411.91 35.09 411.91 24.16 418.75 24.16 418.75 25.53 413.27 25.53"/><rect class="cls-1" x="423.09" y="24.16" width="1.37" height="10.93"/><polygon class="cls-1" points="436.35 35.09 430.87 26.67 430.87 35.09 429.5 35.09 429.5 24.16 430.87 24.16 436.35 32.58 436.35 24.16 437.71 24.16 437.71 35.09 436.35 35.09"/><rect class="cls-1" x="442.74" y="24.16" width="1.37" height="10.93"/><polygon class="cls-1" points="452.9 25.53 452.9 35.09 451.53 35.09 451.53 25.53 448.12 25.53 448.12 24.16 456.32 24.16 456.32 25.53 452.9 25.53"/><polygon class="cls-1" points="460.33 35.09 460.33 24.16 467.18 24.16 467.18 25.53 461.7 25.53 461.7 28.81 465.8 28.81 465.8 30.18 461.7 30.18 461.7 33.73 467.18 33.73 467.18 35.09 460.33 35.09"/><path class="cls-1" d="M488.18,27.23a3.07,3.07,0,0,1-3.07,3.07h-4.44v4.8h-1.37V24.16h5.8a3.11,3.11,0,0,1,3.08,3.07m-1.37,0a1.73,1.73,0,0,0-1.71-1.71h-4.44v3.4h4.44a1.65,1.65,0,0,0,1.2-.5,1.63,1.63,0,0,0,.5-1.2"/><path class="cls-1" d="M503.07,29.62a5.61,5.61,0,1,1-9.56-3.94,5.61,5.61,0,0,1,9.56,3.94m-1.37,0a4.27,4.27,0,1,0-1.25,3,4.08,4.08,0,0,0,1.25-3"/><polygon class="cls-1" points="511.18 25.53 511.18 35.09 509.81 35.09 509.81 25.53 506.39 25.53 506.39 24.16 514.6 24.16 514.6 25.53 511.18 25.53"/><polygon class="cls-1" points="518.61 35.09 518.61 24.16 525.45 24.16 525.45 25.53 519.98 25.53 519.98 28.81 524.08 28.81 524.08 30.18 519.98 30.18 519.98 33.73 525.45 33.73 525.45 35.09 518.61 35.09"/><polygon class="cls-1" points="537.33 35.09 531.86 26.67 531.86 35.09 530.49 35.09 530.49 24.16 531.86 24.16 537.33 32.58 537.33 24.16 538.7 24.16 538.7 35.09 537.33 35.09"/><polygon class="cls-1" points="547.49 25.53 547.49 35.09 546.12 35.09 546.12 25.53 542.7 25.53 542.7 24.16 550.91 24.16 550.91 25.53 547.49 25.53"/><rect class="cls-1" x="554.92" y="24.16" width="1.37" height="10.93"/><path class="cls-1" d="M568.34,35.09,567.58,33h-5.42l-.75,2.05H560l4-10.93h1.88l4,10.93Zm-3.46-9.52-2.23,6.1h4.45Z"/><polygon class="cls-1" points="573.47 35.09 573.47 24.16 574.84 24.16 574.84 33.73 580.32 33.73 580.32 35.09 573.47 35.09"/></g></g></svg>