<?xml version="1.0" encoding="UTF-8" standalone="no"?>
<svg
   xmlns:dc="http://purl.org/dc/elements/1.1/"
   xmlns:cc="http://creativecommons.org/ns#"
   xmlns:rdf="http://www.w3.org/1999/02/22-rdf-syntax-ns#"
   xmlns:svg="http://www.w3.org/2000/svg"
   xmlns="http://www.w3.org/2000/svg"
   viewBox="0 0 776 50"
   height="120"
   width="822"
   xml:space="preserve"
   id="svg2"
   version="1.1"><metadata
     id="metadata8"><rdf:RDF><cc:Work
         rdf:about=""><dc:format>image/svg+xml</dc:format><dc:type
           rdf:resource="http://purl.org/dc/dcmitype/StillImage" /></cc:Work></rdf:RDF></metadata><defs
     id="defs6"><clipPath
       id="clipPath18"
       clipPathUnits="userSpaceOnUse"><path
         id="path16"
         d="M 0,184.491 H 612 V 0 H 0 Z" /></clipPath><clipPath
       id="clipPath102"
       clipPathUnits="userSpaceOnUse"><path
         id="path100"
         d="M 0,184.491 H 612 V 0 H 0 Z" /></clipPath></defs><g
     transform="matrix(1.3333333,0,0,-1.3333333,-20,150)"
     id="g10"><g
       id="g12"><g
         clip-path="url(#clipPath18)"
         id="g14"><g
           transform="translate(355.2129,157.0762)"
           id="g20"><path
             id="path22"
             style="fill:#8a1f02;fill-opacity:1;fill-rule:nonzero;stroke:none"
             d="m 0,0 h -0.629 c -13.287,0 -26.285,-12.103 -38.457,-24.496 -0.269,-0.274 -0.275,-0.708 -0.016,-0.989 0.26,-0.279 0.694,-0.307 0.977,-0.069 11.84,9.759 24.48,19.289 37.369,19.289 12.789,0 23.195,-10.466 23.195,-23.332 0,-12.86 -10.486,-23.333 -23.373,-23.333 -14.517,0 -28.461,13.027 -40.763,24.516 0,-0.008 -1.426,1.304 -1.426,1.304 0.018,-0.003 -0.633,0.608 -0.633,0.608 C -57.704,-13.475 -72.119,0 -86.8,0 h -0.628 c -16.321,0 -29.589,-13.277 -29.589,-29.597 0,-16.311 13.276,-29.587 29.599,-29.587 -0.026,0 0.88,-0.023 0.88,-0.023 13.369,0.083 26.444,12.259 38.686,24.725 0.266,0.269 0.276,0.7 0.018,0.983 -0.256,0.278 -0.692,0.309 -0.983,0.065 -11.902,-9.82 -24.611,-19.414 -37.666,-19.496 -12.892,0 -23.381,10.473 -23.381,23.333 0,12.866 10.405,23.332 23.195,23.332 13.304,0 26.354,-11.182 40.815,-24.7 l 2.338,-2.173 c 13.633,-12.758 27.741,-25.954 42.528,-26.046 H 0 c 16.32,0 29.59,13.276 29.59,29.587 C 29.59,-13.277 16.32,0 0,0" /></g><g
           transform="translate(312.7676,54.5146)"
           id="g24"><path
             id="path26"
             style="fill:#231f20;fill-opacity:1;fill-rule:nonzero;stroke:none"
             d="M 0,0 H -3.646 L -6.172,6.969 -8.709,0 h -3.666 l -7.668,21.104 h 2.797 l 6.716,-18.359 2.942,8.088 -3.759,10.271 h 2.813 l 2.362,-6.413 2.299,6.413 h 2.828 L -4.783,10.801 -1.838,2.745 4.852,21.104 H 7.67 Z" /></g><path
           id="path28"
           style="fill:#231f20;fill-opacity:1;fill-rule:nonzero;stroke:none"
           d="m 329.754,75.618 h 2.637 V 54.514 h -2.637 z" /><g
           transform="translate(344.3477,54.5146)"
           id="g30"><path
             id="path32"
             style="fill:#231f20;fill-opacity:1;fill-rule:nonzero;stroke:none"
             d="M 0,0 V 21.104 H 2.631 V 2.629 H 13.203 V 0 Z" /></g><g
           transform="translate(380.0879,54.5146)"
           id="g34"><path
             id="path36"
             style="fill:#231f20;fill-opacity:1;fill-rule:nonzero;stroke:none"
             d="M 0,0 V 9.212 H -10.584 V 0 h -2.639 v 21.104 h 2.639 V 11.845 H 0 v 9.259 H 2.631 V 0 Z" /></g><g
           transform="translate(394.6738,54.5146)"
           id="g38"><path
             id="path40"
             style="fill:#231f20;fill-opacity:1;fill-rule:nonzero;stroke:none"
             d="M 0,0 V 21.104 H 13.201 V 18.478 H 2.633 v -6.35 h 7.931 V 9.497 H 2.633 V 2.629 H 13.201 V 0 Z" /></g><g
           transform="translate(419.8359,54.5146)"
           id="g42"><path
             id="path44"
             style="fill:#231f20;fill-opacity:1;fill-rule:nonzero;stroke:none"
             d="M 0,0 V 21.104 H 2.631 V 2.629 h 10.57 V 0 Z" /></g><g
           transform="translate(460.8398,54.5146)"
           id="g46"><path
             id="path48"
             style="fill:#231f20;fill-opacity:1;fill-rule:nonzero;stroke:none"
             d="M 0,0 V 14.783 L -6.48,0 H -9.365 L -15.84,14.783 V 0 h -2.639 v 21.104 h 2.752 L -7.916,3.295 -0.119,21.104 H 2.633 L 2.633,0 Z" /></g><path
           id="path50"
           style="fill:#231f20;fill-opacity:1;fill-rule:nonzero;stroke:none"
           d="m 475.449,75.618 h 2.631 V 54.514 h -2.631 z" /><g
           transform="translate(168.9067,74.0586)"
           id="g52"><path
             id="path54"
             style="fill:#8a1f02;fill-opacity:1;fill-rule:nonzero;stroke:none"
             d="m 0,0 c 0,3.986 -2.058,7.764 -6.298,11.55 -3.285,2.925 -6.666,5.218 -10.335,7.004 -4.979,2.466 -9.997,3.809 -15.336,4.112 -3.225,0.149 -5.997,-0.475 -8.26,-1.848 -2.111,-1.296 -3.357,-2.97 -3.617,-4.861 0,-0.034 -0.147,-1.655 -0.147,-1.655 0,-1.683 0.245,-3.362 0.736,-4.987 0.657,-2.073 1.435,-3.457 2.386,-4.245 0.264,-0.357 0.587,-0.566 0.905,-0.566 h 0.275 l 0.293,0.336 c 0.064,0.074 0.153,0.179 0.153,0.179 l -0.036,0.177 -0.322,0.878 c -1.37,2.065 -2.053,4.73 -2.053,7.941 l 0.134,1.77 c 0.564,3.264 3.206,4.924 7.843,4.924 4.442,0 8.95,-1.057 13.769,-3.236 4.243,-1.964 8.253,-4.686 11.903,-8.092 3.198,-3.052 4.816,-6.321 4.816,-9.713 0,-2.668 -1.129,-4.535 -3.443,-5.715 -2.145,-1.144 -4.911,-1.747 -8.018,-1.747 -1.715,0 -3.051,0.236 -3.978,0.7 l -0.058,0.028 -0.052,0.015 c -0.462,0.125 -0.551,0.284 -0.597,0.427 l -0.22,0.645 -0.606,-0.305 c -0.345,-0.167 -0.602,-0.346 -0.809,-0.531 0.01,0.021 0.019,0.042 0.033,0.062 2.369,4.649 4.48,9.56 6.274,14.609 0.114,0.289 0.14,0.73 0.077,1.493 -0.033,0.45 -0.115,1.401 -0.828,1.401 h -0.365 l -0.232,-0.405 -0.06,-0.08 -0.05,-0.114 c -1.664,-4.985 -4.492,-10.949 -8.394,-17.722 -5.263,-9.148 -8.073,-11.694 -9.506,-12.224 -1.22,-0.311 -2.005,-0.361 -2.585,-0.143 -0.826,0.331 -1.467,0.782 -1.935,1.381 -0.4,0.404 -0.656,0.659 -1.096,0.659 -0.384,0 -0.829,-0.231 -0.829,-0.88 0,-0.345 0.203,-0.766 0.394,-1.045 0.62,-0.946 1.409,-1.631 2.465,-2.154 0.514,-0.203 1.115,-0.305 1.698,-0.305 1.284,0 2.521,0.305 3.571,0.879 3.499,1.939 7.051,6.405 10.859,13.612 0.134,-1.721 5.143,-1.811 6.16,-1.811 3.517,0 6.664,0.542 9.371,1.615 C -2.001,-6.392 0,-3.706 0,0" /></g><g
           transform="translate(178.6108,68.0303)"
           id="g56"><path
             id="path58"
             style="fill:#8a1f02;fill-opacity:1;fill-rule:nonzero;stroke:none"
             d="M 0,0 C 0.085,-0.061 0.444,-0.199 0.954,0.088 1.48,0.376 2.217,1.164 2.217,1.789 V 2.158 L 1.837,2.416 C 1.254,2.706 0.465,2.813 -0.649,2.76 L -0.755,2.757 -0.852,2.715 C -2.076,2.207 -3.684,1.132 -5.771,-0.565 -7.354,-1.847 -8.645,-3.1 -9.765,-4.317 c 0.758,1.204 1.826,2.739 3.281,4.699 0.153,0.146 0.235,0.382 0.235,0.627 0,0.167 -0.065,0.333 -0.144,0.487 -0.143,0.355 -0.485,0.602 -0.9,0.602 -0.277,0 -0.44,-0.102 -0.557,-0.213 -2.504,-1.496 -3.219,-1.849 -3.42,-1.926 l -0.368,-0.136 0.051,-0.146 -0.036,-0.801 c 0,-0.002 0.102,-0.352 0.102,-0.352 0,-0.231 -0.073,-0.545 -0.236,-0.946 -1.078,-2.528 -3.181,-6.201 -6.239,-10.914 -0.03,-0.05 -0.107,-0.91 -0.111,-0.97 0.118,-0.409 0.414,-0.527 0.538,-0.554 0.173,-0.035 0.416,-0.003 0.659,0.232 l 1.823,0.89 c 0.352,0.177 0.572,0.38 0.678,0.593 l -0.004,-0.01 c 3.615,5.933 7.773,10.22 12.357,12.748 C -1.123,0.075 -0.483,0.204 0,0" /></g><g
           transform="translate(160.4883,53.6055)"
           id="g60"><path
             id="path62"
             style="fill:#7b1113;fill-opacity:1;fill-rule:nonzero;stroke:none"
             d="M 0,0 C 0,0 0.015,0.118 0.015,0.119 0.01,0.131 0,0.131 0,0.144 Z" /></g><g
           transform="translate(172.1909,69.6211)"
           id="g64"><path
             id="path66"
             style="fill:#7b1113;fill-opacity:1;fill-rule:nonzero;stroke:none"
             d="M 0,0 C 0.02,-0.029 0.01,-0.066 0.027,-0.095 0.04,-0.12 0.065,-0.131 0.076,-0.157 Z" /></g><g
           transform="translate(178.8833,54.9336)"
           id="g68"><path
             id="path70"
             style="fill:#8a1f02;fill-opacity:1;fill-rule:nonzero;stroke:none"
             d="m 0,0 c -0.035,0.026 -0.064,0.123 -0.064,0.248 0,0.25 0.078,0.524 0.208,0.753 1.849,4.348 4.445,8.077 7.748,11.152 0.016,0 0.5,0.298 0.5,0.298 l -0.353,0.044 0.144,-0.02 0.328,-0.01 c 1.147,0.431 2.4,0.563 3.721,0.397 0.895,-0.093 1.176,-0.318 1.268,-0.447 0.026,-0.038 0.117,-0.168 0.035,-0.494 C 13.084,9.741 11.303,7.249 8.239,4.505 5.324,1.815 2.816,0.298 0.775,-0.019 0.178,-0.135 0.015,-0.019 0,0 m 16.478,12.549 v 0 c 0,0.055 -0.112,0.557 -0.112,0.557 0,0 -0.01,0.04 -0.024,0.074 0.14,0.07 0.502,0.2 1.3,0.2 0.968,0 1.316,0.474 1.316,0.888 0,0.289 -0.173,0.781 -1.316,0.781 l -4.584,0.145 c 0,0 -1.237,0.035 -1.458,0.042 -0.088,0.055 -0.209,0.131 -0.209,0.131 -0.995,0.572 -1.771,0.981 -2.474,0.92 C 8.101,16.231 7.342,15.861 6.554,15.146 L 6.32,15.049 H 6.322 C 6.13,15.067 5.876,15.067 5.4,15.042 L 4.52,15 C 3.984,14.985 2.56,14.936 2.56,13.794 v -0.037 c 0,-0.62 0.573,-1.058 1.298,-1.505 C -0.257,7.169 -2.396,3.205 -2.448,0.5 V 0.489 c 0,-0.601 0.31,-1.205 0.844,-1.662 0.586,-0.496 1.347,-0.745 1.992,-0.64 2.854,0.382 6.15,2.207 10.068,5.565 3.84,3.306 5.814,6.184 6.022,8.797" /></g><g
           transform="translate(238.6523,53.6055)"
           id="g72"><path
             id="path74"
             style="fill:#7b1113;fill-opacity:1;fill-rule:nonzero;stroke:none"
             d="m 0,0 0.014,0.119 c 0,0.003 -0.005,0.003 -0.005,0.006 z" /></g><g
           transform="translate(257.7305,68.1182)"
           id="g76"><path
             id="path78"
             style="fill:#8a1f02;fill-opacity:1;fill-rule:nonzero;stroke:none"
             d="M 0,0 C 0.524,0.285 1.261,1.073 1.261,1.701 V 2.07 L 0.887,2.328 C 0.315,2.613 -0.498,2.725 -1.598,2.672 L -1.707,2.669 -1.802,2.627 c -1.222,-0.508 -2.833,-1.583 -4.914,-3.28 -1.571,-1.267 -2.866,-2.518 -3.998,-3.749 0.757,1.2 1.829,2.735 3.286,4.696 0.15,0.146 0.231,0.382 0.231,0.63 0,0.167 -0.059,0.335 -0.138,0.484 -0.149,0.362 -0.489,0.602 -0.911,0.602 -0.28,0 -0.441,-0.102 -0.549,-0.213 -2.519,-1.496 -3.231,-1.849 -3.43,-1.926 l -0.365,-0.136 0.05,-0.146 -0.04,-0.801 c 0.016,-0.052 0.118,-0.368 0.118,-0.368 -0.005,-0.211 -0.078,-0.512 -0.244,-0.93 -1.063,-2.497 -3.164,-6.176 -6.237,-10.914 -0.026,-0.05 -0.119,-0.947 -0.121,-0.97 0.121,-0.409 0.397,-0.525 0.554,-0.554 0.157,-0.031 0.375,0.017 0.601,0.213 0.002,0 1.878,0.909 1.878,0.909 0.346,0.178 0.562,0.38 0.67,0.594 l -0.002,-0.011 c 3.612,5.929 7.772,10.221 12.361,12.748 1.211,0.633 1.753,0.533 2.052,0.407 C -0.866,-0.148 -0.508,-0.287 0,0" /></g><g
           transform="translate(250.3652,69.6152)"
           id="g80"><path
             id="path82"
             style="fill:#7b1113;fill-opacity:1;fill-rule:nonzero;stroke:none"
             d="m 0,0 c 0.02,-0.025 0.013,-0.061 0.03,-0.089 0.009,-0.02 0.033,-0.033 0.04,-0.057 z" /></g><g
           transform="translate(267.1982,59.4385)"
           id="g84"><path
             id="path86"
             style="fill:#8a1f02;fill-opacity:1;fill-rule:nonzero;stroke:none"
             d="m 0,0 c -2.913,-2.689 -5.426,-4.207 -7.468,-4.523 -0.592,-0.117 -0.753,0 -0.768,0.015 -0.037,0.029 -0.058,0.126 -0.058,0.251 0,0.257 0.073,0.525 0.2,0.753 1.845,4.346 4.44,8.075 7.745,11.152 0.021,0 0.498,0.298 0.498,0.298 L -0.055,7.97 0.273,7.96 C 1.42,8.391 2.674,8.521 3.99,8.357 4.888,8.264 5.169,8.037 5.26,7.906 5.286,7.867 5.378,7.742 5.3,7.416 4.846,5.236 3.063,2.744 0,0 m 9.411,10.544 -4.57,0.145 c 0,0 -1.26,0.035 -1.48,0.042 -0.089,0.055 -0.202,0.125 -0.202,0.125 -1.008,0.579 -1.783,0.987 -2.485,0.926 -0.814,-0.057 -1.573,-0.428 -2.361,-1.141 -0.055,-0.021 -0.218,-0.094 -0.226,-0.097 -0.189,0.021 -0.444,0.019 -0.925,-0.007 L -3.721,10.495 C -4.256,10.48 -5.676,10.431 -5.676,9.289 V 9.252 c 0,-0.618 0.57,-1.058 1.298,-1.505 -4.12,-5.085 -6.259,-9.05 -6.303,-11.752 v -0.011 c 0,-0.601 0.304,-1.205 0.838,-1.664 0.587,-0.494 1.349,-0.743 1.991,-0.638 2.862,0.382 6.156,2.207 10.07,5.565 3.84,3.306 5.81,6.184 6.02,8.797 0,0.056 -0.107,0.565 -0.107,0.565 0,0 -0.012,0.034 -0.028,0.066 0.141,0.07 0.506,0.2 1.308,0.2 0.964,0 1.302,0.475 1.302,0.888 0,0.289 -0.17,0.781 -1.302,0.781" /></g><g
           transform="translate(227.6641,83.2783)"
           id="g88"><path
             id="path90"
             style="fill:#8a1f02;fill-opacity:1;fill-rule:nonzero;stroke:none"
             d="m 0,0 c -0.405,0.051 -1.278,0.155 -1.278,0.155 -0.567,0.082 -0.567,0.302 -0.567,0.382 0,0.188 0.032,0.326 0.212,0.508 1.024,1.178 2.419,2.135 4.1,2.843 C 1.503,2.368 0.27,0.428 0,0 m 55.243,23.646 c 0,-4.223 0.248,-3.15 -6.458,-7.538 C 42.536,12.021 31.973,6.502 24.604,4.02 18.998,2.133 11.146,-0.123 5.557,-0.123 l -2.611,0.1 c 5.645,9.461 12.531,18.718 19.244,25.21 l -2.005,1.259 C 14.542,20.913 8.745,13.472 3.877,6.165 0.592,5.421 -1.84,4.197 -3.522,2.411 -3.797,2.075 -4.043,1.687 -4.043,1.09 c 0,-1.264 1.113,-2.698 2.282,-2.955 0.025,-0.003 0.397,-0.072 0.599,-0.105 -4.918,-8.511 -9.825,-20.835 -12.191,-25.877 -0.026,-0.068 -0.11,-0.671 -0.11,-0.671 0,-0.177 0.016,-0.332 0.044,-0.468 -0.543,-0.305 -0.852,-0.595 -1.08,-1.014 l -0.042,-0.081 -0.017,-0.085 c -0.062,-0.294 0.01,-0.585 0.185,-0.801 0.188,-0.222 0.461,-0.35 0.778,-0.35 l 0.875,0.309 c 0.338,0.176 0.755,0.398 1.218,0.467 0.708,0.114 1.238,0.008 1.627,-0.319 0.569,-0.493 0.878,-1.548 0.878,-3.049 -0.494,-3.176 -2.766,-6.962 -6.748,-11.169 -4.081,-4.323 -7.905,-6.998 -11.704,-8.185 -1.218,-0.407 -2.336,-0.599 -3.545,-0.599 -3.544,0 -5.263,2.521 -5.263,7.704 l 0.04,2.25 c 0.518,5.719 3.015,13.168 7.424,22.131 2.926,5.95 6.109,10.81 9.117,15.271 0.169,0.271 0.456,0.449 0.801,0.514 0.048,-0.004 7.528,0.407 7.528,0.407 l 6.591,0.347 c 0.941,0.076 1.532,1.184 1.532,1.55 v 0.438 l -0.183,-0.006 -0.984,0.308 -0.773,0.007 -5.524,0.037 h -6.841 c 0.036,0.074 0.085,0.151 0.085,0.151 6.766,9.29 11.634,14.294 14.459,14.879 0.383,0.104 0.95,0.268 0.95,0.917 0,0.489 -0.35,1.021 -1.118,1.021 -0.649,0 -1.091,-0.167 -1.821,-0.447 l -1.094,-0.398 c -1.947,-0.722 -2.626,-1.053 -2.931,-1.417 l -1.679,-1.944 c -3.761,-4.355 -7.309,-8.466 -9.949,-12.611 -0.022,-0.033 -0.028,-0.112 -0.048,-0.16 -4.115,-0.03 -4.714,-0.439 -4.939,-0.886 l -0.053,-0.965 c 0.198,-0.521 0.751,-0.961 1.695,-1.339 0.398,-0.215 0.49,-0.466 0.49,-0.781 0,-0.347 -0.074,-0.642 -0.418,-1.033 -3.506,-5.035 -6.796,-11.1 -9.831,-18.08 -3.721,-8.514 -5.524,-14.889 -5.524,-19.495 0,-2.98 0.352,-5.362 2.097,-7.309 l 0.009,-0.01 c 1.868,-2.027 4.128,-3.052 6.728,-3.052 4.331,0 9.221,2.514 14.938,7.685 5.587,5.049 8.711,9.778 9.29,14.045 0.113,0.842 -0.338,2.001 -1.425,3.651 -0.892,1.333 -1.801,2.062 -2.829,2.255 1.429,1.624 3.322,3.585 5.671,5.844 3.289,3.14 5.858,5.226 7.642,6.188 0.392,0.245 0.572,0.272 0.702,0.272 l 0.17,-0.015 c -0.043,-0.206 -0.072,-0.264 -0.12,-0.333 -3.065,-4.05 -4.846,-7.311 -5.446,-9.958 -0.257,-0.958 0.12,-1.868 1.112,-2.672 0.747,-0.687 1.486,-1.035 2.237,-1.035 2.118,0 5.225,1.724 9.771,5.425 0.052,0.047 0.399,0.394 0.399,0.394 l 0.365,0.373 -0.298,0.422 -0.466,0.661 -0.479,-0.342 -0.048,-0.026 -0.434,-0.249 c -4.425,-3.36 -6.581,-4.066 -7.61,-4.066 -0.612,0 -0.725,0.231 -0.725,0.676 0,0.608 0.313,2.187 2.368,5.936 1.561,2.732 2.711,4.505 3.722,5.735 -0.032,-0.039 0.193,0.647 0.193,0.647 0,0.558 -0.41,1.001 -0.654,1.217 -0.196,0.169 -0.705,0.569 -1.243,0.503 -1.292,-0.337 -1.869,-0.524 -2.182,-0.779 -1.629,-0.315 -4.297,-2.219 -6.307,-3.848 -1.914,-1.536 -3.829,-3.266 -5.725,-5.092 2.696,4.835 6.898,15.724 9.602,20.276 0.601,-0.02 2.99,-0.088 2.99,-0.088 12.995,0 28.981,6.481 41.539,14.298 3.729,2.316 11.347,7.913 13.911,9.766 2.403,1.743 3.232,3.066 3.394,4.307 l -8.361,-2.564" /></g></g></g><text
       id="text94"
       style="font-variant:normal;font-weight:normal;font-stretch:normal;font-size:14.78439999px;font-family:'Times New Roman';-inkscape-font-specification:TimesNewRomanPSMT;writing-mode:lr-tb;fill:#8a1f02;fill-opacity:1;fill-rule:nonzero;stroke:none"
       transform="matrix(1,0,0,-0.76588837,229.3306,34.9277)"><tspan
         id="tspan92"
         y="0"
         x="0 10.142098 19.45627 28.711306 38.025478 43.229584 51.730614 56.934723 66.248894 77.20414 81.181137 89.682167 100.63741 110.77951 120.09368 125.29779 135.4399 138.60374 149.55899 159.7011 169.84319 180.79843 191.75366 202.70891 210.84033 221.79556 232.75081 242.06499">CERTIFIED PUBLIC ACCOUNTANTS</tspan></text>
<g
       id="g96"><g
         clip-path="url(#clipPath102)"
         id="g98"><g
           transform="translate(15.8423,121.998)"
           id="g104"><path
             id="path106"
             style="fill:#8a1f02;fill-opacity:1;fill-rule:nonzero;stroke:none"
             d="M 0,0 V 10.935 H 6.843 V 9.565 H 1.368 V 6.286 H 5.472 V 4.912 H 1.368 V 1.367 H 6.843 V 0 Z" /></g><g
           transform="translate(34.103,131.5635)"
           id="g108"><path
             id="path110"
             style="fill:#8a1f02;fill-opacity:1;fill-rule:nonzero;stroke:none"
             d="M 0,0 V -9.565 H -1.37 V 0 H -4.782 V 1.367 H 3.423 V 0 Z" /></g><g
           transform="translate(44.1636,121.998)"
           id="g112"><path
             id="path114"
             style="fill:#8a1f02;fill-opacity:1;fill-rule:nonzero;stroke:none"
             d="M 0,0 V 10.935 H 6.844 V 9.565 H 1.369 V 6.286 H 5.473 V 4.912 H 1.369 V 1.367 H 6.844 V 0 Z" /></g><g
           transform="translate(66.1807,129.8594)"
           id="g116"><path
             id="path118"
             style="fill:#8a1f02;fill-opacity:1;fill-rule:nonzero;stroke:none"
             d="M 0,0 C 0,0.463 -0.167,0.861 -0.502,1.196 -0.841,1.535 -1.24,1.704 -1.704,1.704 h -4.438 v -3.403 h 4.438 c 0.464,0 0.863,0.169 1.202,0.504 C -0.167,-0.86 0,-0.462 0,0 m -0.214,-7.861 -2.745,4.796 H -6.142 V -7.861 H -7.511 V 3.071 h 5.804 c 0.838,0 1.56,-0.3 2.163,-0.908 0.609,-0.607 0.912,-1.324 0.912,-2.165 0,-0.788 -0.266,-1.468 -0.802,-2.059 -0.539,-0.586 -1.195,-0.921 -1.971,-1 l 2.773,-4.8 z" /></g><g
           transform="translate(81.3838,121.998)"
           id="g120"><path
             id="path122"
             style="fill:#8a1f02;fill-opacity:1;fill-rule:nonzero;stroke:none"
             d="M 0,0 -5.477,8.425 V 0 h -1.368 v 10.935 h 1.368 L 0,2.515 v 8.42 H 1.37 V 0 Z" /></g><g
           transform="translate(93.958,131.5215)"
           id="g124"><path
             id="path126"
             style="fill:#8a1f02;fill-opacity:1;fill-rule:nonzero;stroke:none"
             d="m 0,0 -2.229,-6.101 h 4.446 z m 3.458,-9.521 -0.75,2.054 H -2.719 L -3.472,-9.521 H -4.923 L -0.941,1.411 H 0.947 L 4.929,-9.521 Z" /></g><g
           transform="translate(105.1841,121.998)"
           id="g128"><path
             id="path130"
             style="fill:#8a1f02;fill-opacity:1;fill-rule:nonzero;stroke:none"
             d="M 0,0 V 10.935 H 1.369 V 1.367 H 6.842 V 0 Z" /></g><g
           transform="translate(132.5259,121.998)"
           id="g132"><path
             id="path134"
             style="fill:#8a1f02;fill-opacity:1;fill-rule:nonzero;stroke:none"
             d="m 0,0 h -1.882 l -3.983,10.935 h 1.45 l 3.469,-9.519 3.463,9.519 h 1.465 z" /></g><g
           transform="translate(145.3335,131.5215)"
           id="g136"><path
             id="path138"
             style="fill:#8a1f02;fill-opacity:1;fill-rule:nonzero;stroke:none"
             d="M 0,0 -2.228,-6.101 H 2.217 Z M 3.461,-9.521 2.708,-7.467 H -2.719 L -3.471,-9.521 H -4.923 L -0.939,1.411 H 0.946 L 4.929,-9.521 Z" /></g><g
           transform="translate(156.5601,121.998)"
           id="g140"><path
             id="path142"
             style="fill:#8a1f02;fill-opacity:1;fill-rule:nonzero;stroke:none"
             d="M 0,0 V 10.935 H 1.369 V 1.367 H 6.842 V 0 Z" /></g><g
           transform="translate(177.2715,123.1768)"
           id="g144"><path
             id="path146"
             style="fill:#8a1f02;fill-opacity:1;fill-rule:nonzero;stroke:none"
             d="m 0,0 c -0.876,-0.866 -1.923,-1.299 -3.141,-1.299 -1.217,0 -2.261,0.433 -3.132,1.299 -0.872,0.866 -1.304,1.905 -1.304,3.131 v 6.625 h 1.369 V 3.129 c 0,-0.849 0.302,-1.576 0.904,-2.181 0.597,-0.596 1.322,-0.895 2.168,-0.895 0.845,0 1.57,0.299 2.17,0.895 0.598,0.605 0.901,1.332 0.901,2.181 V 9.756 H 1.304 V 3.131 C 1.304,1.905 0.866,0.866 0,0" /></g><g
           transform="translate(186.2529,121.998)"
           id="g148"><path
             id="path150"
             style="fill:#8a1f02;fill-opacity:1;fill-rule:nonzero;stroke:none"
             d="M 0,0 V 10.935 H 6.842 V 9.565 H 1.369 V 6.286 H 5.473 V 4.912 H 1.369 V 1.367 H 6.842 V 0 Z" /></g><g
           transform="translate(206.8184,124.9229)"
           id="g152"><path
             id="path154"
             style="fill:#8a1f02;fill-opacity:1;fill-rule:nonzero;stroke:none"
             d="m 0,0 c 0,-0.846 -0.307,-1.563 -0.914,-2.154 -0.601,-0.592 -1.331,-0.893 -2.182,-0.893 -0.725,0 -1.367,0.234 -1.921,0.689 -0.551,0.453 -0.899,1.043 -1.045,1.767 l 1.325,0.355 c 0.065,-0.413 0.246,-0.76 0.553,-1.042 0.312,-0.28 0.675,-0.417 1.093,-0.417 0.458,0 0.863,0.166 1.21,0.498 0.341,0.327 0.514,0.721 0.514,1.193 0,0.707 -0.407,1.245 -1.221,1.63 -0.375,0.169 -0.749,0.341 -1.122,0.512 -0.373,0.172 -0.751,0.341 -1.133,0.512 -0.811,0.542 -1.219,1.361 -1.219,2.454 0,0.855 0.307,1.57 0.917,2.159 0.609,0.591 1.337,0.888 2.187,0.888 0.732,0 1.375,-0.239 1.926,-0.707 C -0.484,6.976 -0.138,6.382 0,5.661 L -1.35,5.319 c -0.049,0.418 -0.228,0.761 -0.527,1.047 -0.298,0.278 -0.658,0.416 -1.086,0.416 -0.461,0 -0.866,-0.164 -1.216,-0.496 -0.342,-0.322 -0.51,-0.721 -0.51,-1.182 0,-0.713 0.405,-1.267 1.217,-1.661 L -1.221,2.435 C -0.405,1.886 0,1.078 0,0" /></g><path
           id="path156"
           style="fill:#8a1f02;fill-opacity:1;fill-rule:nonzero;stroke:none"
           d="m 408.104,132.918 h 1.369 v -10.935 h -1.369 z" /><g
           transform="translate(421.3516,121.9834)"
           id="g158"><path
             id="path160"
             style="fill:#8a1f02;fill-opacity:1;fill-rule:nonzero;stroke:none"
             d="M 0,0 -5.477,8.425 V 0 h -1.369 v 10.935 h 1.369 L 0,2.515 v 8.42 H 1.371 V 0 Z" /></g><g
           transform="translate(429.1172,131.5488)"
           id="g162"><path
             id="path164"
             style="fill:#8a1f02;fill-opacity:1;fill-rule:nonzero;stroke:none"
             d="M 0,0 V -3.28 H 4.104 V -4.655 H 0 v -4.91 H -1.369 V 1.369 H 5.475 L 5.475,0 Z" /></g><path
           id="path166"
           style="fill:#8a1f02;fill-opacity:1;fill-rule:nonzero;stroke:none"
           d="m 438.936,132.918 h 1.369 v -10.935 h -1.369 z" /><g
           transform="translate(452.1875,121.9834)"
           id="g168"><path
             id="path170"
             style="fill:#8a1f02;fill-opacity:1;fill-rule:nonzero;stroke:none"
             d="M 0,0 -5.479,8.425 V 0 h -1.369 v 10.935 h 1.369 L 0,2.515 v 8.42 H 1.367 V 0 Z" /></g><path
           id="path172"
           style="fill:#8a1f02;fill-opacity:1;fill-rule:nonzero;stroke:none"
           d="m 458.58,132.918 h 1.369 v -10.935 h -1.369 z" /><g
           transform="translate(468.7402,131.5488)"
           id="g174"><path
             id="path176"
             style="fill:#8a1f02;fill-opacity:1;fill-rule:nonzero;stroke:none"
             d="M 0,0 V -9.565 H -1.371 V 0 H -4.783 V 1.369 H 3.422 L 3.422,0 Z" /></g><g
           transform="translate(476.1738,121.9834)"
           id="g178"><path
             id="path180"
             style="fill:#8a1f02;fill-opacity:1;fill-rule:nonzero;stroke:none"
             d="M 0,0 V 10.935 H 6.844 V 9.565 H 1.367 V 6.285 H 5.471 V 4.91 H 1.367 V 1.367 H 6.844 V 0 Z" /></g><g
           transform="translate(502.6484,129.8418)"
           id="g182"><path
             id="path184"
             style="fill:#8a1f02;fill-opacity:1;fill-rule:nonzero;stroke:none"
             d="M 0,0 C 0,0.466 -0.168,0.861 -0.502,1.196 -0.84,1.538 -1.24,1.707 -1.705,1.707 h -4.438 v -3.403 h 4.438 c 0.465,0 0.865,0.166 1.203,0.501 C -0.168,-0.86 0,-0.465 0,0 m 1.369,0.005 c 0,-0.843 -0.303,-1.563 -0.902,-2.169 -0.606,-0.603 -1.328,-0.899 -2.172,-0.899 H -6.143 V -7.858 H -7.512 V 3.074 h 5.805 c 0.84,0 1.559,-0.303 2.162,-0.909 0.609,-0.606 0.914,-1.324 0.914,-2.16" /></g><g
           transform="translate(517.541,127.4512)"
           id="g186"><path
             id="path188"
             style="fill:#8a1f02;fill-opacity:1;fill-rule:nonzero;stroke:none"
             d="m 0,0 c 0,1.149 -0.42,2.145 -1.252,2.978 -0.832,0.84 -1.826,1.263 -2.99,1.263 -1.156,0 -2.153,-0.423 -2.987,-1.263 C -8.061,2.145 -8.48,1.149 -8.48,0 c 0,-1.16 0.419,-2.158 1.251,-2.991 0.834,-0.833 1.831,-1.251 2.987,-1.251 1.164,0 2.158,0.418 2.99,1.251 C -0.42,-2.158 0,-1.16 0,0 m 1.367,0.004 c 0,-1.542 -0.553,-2.857 -1.658,-3.951 -1.094,-1.095 -2.412,-1.642 -3.951,-1.642 -1.535,0 -2.856,0.547 -3.955,1.642 -1.1,1.1 -1.651,2.414 -1.651,3.951 0,1.528 0.551,2.843 1.651,3.939 1.105,1.112 2.424,1.664 3.955,1.664 1.535,0 2.853,-0.552 3.951,-1.664 C 0.814,2.847 1.367,1.532 1.367,0.004" /></g><g
           transform="translate(527.0215,131.5488)"
           id="g190"><path
             id="path192"
             style="fill:#8a1f02;fill-opacity:1;fill-rule:nonzero;stroke:none"
             d="M 0,0 V -9.565 H -1.371 V 0 H -4.785 V 1.369 H 3.42 V 0 Z" /></g><g
           transform="translate(534.4512,121.9834)"
           id="g194"><path
             id="path196"
             style="fill:#8a1f02;fill-opacity:1;fill-rule:nonzero;stroke:none"
             d="M 0,0 V 10.935 H 6.844 V 9.565 H 1.369 V 6.285 H 5.473 V 4.91 H 1.369 V 1.367 H 6.844 V 0 Z" /></g><g
           transform="translate(553.1758,121.9834)"
           id="g198"><path
             id="path200"
             style="fill:#8a1f02;fill-opacity:1;fill-rule:nonzero;stroke:none"
             d="M 0,0 -5.479,8.425 V 0 h -1.369 v 10.935 h 1.369 L 0,2.515 v 8.42 H 1.369 V 0 Z" /></g><g
           transform="translate(563.3281,131.5488)"
           id="g202"><path
             id="path204"
             style="fill:#8a1f02;fill-opacity:1;fill-rule:nonzero;stroke:none"
             d="M 0,0 V -9.565 H -1.369 V 0 H -4.783 V 1.369 H 3.42 L 3.42,0 Z" /></g><path
           id="path206"
           style="fill:#8a1f02;fill-opacity:1;fill-rule:nonzero;stroke:none"
           d="m 570.762,132.918 h 1.365 v -10.935 h -1.365 z" /><g
           transform="translate(580.7148,131.5029)"
           id="g208"><path
             id="path210"
             style="fill:#8a1f02;fill-opacity:1;fill-rule:nonzero;stroke:none"
             d="M 0,0 -2.229,-6.096 H 2.219 Z M 3.463,-9.518 2.707,-7.463 H -2.717 L -3.471,-9.518 H -4.92 L -0.938,1.415 H 0.945 L 4.928,-9.518 Z" /></g><g
           transform="translate(589.3145,121.9834)"
           id="g212"><path
             id="path214"
             style="fill:#8a1f02;fill-opacity:1;fill-rule:nonzero;stroke:none"
             d="M 0,0 V 10.935 H 1.369 V 1.367 H 6.844 L 6.844,0 Z" /></g></g></g></g></svg>