<svg viewBox="0 0 580.32 129.66" xmlns="http://www.w3.org/2000/svg"><path d="m339.37 0h-.63c-13.29 0-26.29 12.1-38.46 24.5a.72.72 0 0 0 1 1.06c11.84-9.76 24.48-19.29 37.37-19.29a23.33 23.33 0 0 1 -.18 46.66c-14.52 0-28.46-13-40.76-24.52l-1.43-1.3s-.63-.61-.63-.61c-13.95-13-28.36-26.5-43-26.5h-.63a29.59 29.59 0 1 0 0 59.18h.88c13.37-.08 26.44-12.26 38.69-24.72a.71.71 0 0 0 -1-1c-11.9 9.82-24.61 19.41-37.67 19.5a23.33 23.33 0 0 1 -.19-46.66c13.3 0 26.35 11.18 40.82 24.7l2.34 2.17c13.63 12.76 27.74 26 42.53 26h1a29.59 29.59 0 0 0 0-59.18z" fill="#8a1f03"/><path d="m296.93 102.56h-3.65l-2.53-6.97-2.53 6.97h-3.67l-7.67-21.1h2.8l6.72 18.36 2.94-8.09-3.76-10.27h2.81l2.36 6.41 2.3-6.41h2.83l-3.74 10.3 2.95 8.06 6.69-18.36h2.82z" fill="#231f20"/><path d="m313.91 81.46h2.64v21.1h-2.64z" fill="#231f20"/><path d="m328.5 102.56v-21.1h2.64v18.47h10.57v2.63z" fill="#231f20"/><path d="m364.25 102.56v-9.21h-10.59v9.21h-2.64v-21.1h2.64v9.26h10.59v-9.26h2.63v21.1z" fill="#231f20"/><path d="m378.83 102.56v-21.1h13.2v2.62h-10.57v6.35h7.94v2.63h-7.94v6.87h10.57v2.63z" fill="#231f20"/><path d="m403.99 102.56v-21.1h2.63v18.47h10.57v2.63z" fill="#231f20"/><path d="m445 102.56v-14.78l-6.48 14.78h-2.89l-6.47-14.78v14.78h-2.64v-21.1h2.75l7.81 17.81 7.8-17.81h2.75v21.1z" fill="#231f20"/><path d="m459.61 81.46h2.63v21.1h-2.63z" fill="#231f20"/><path d="m153.06 83c0-4-2.06-7.76-6.3-11.55a45.06 45.06 0 0 0 -10.33-7 38.91 38.91 0 0 0 -15.34-4.11 14.36 14.36 0 0 0 -8.26 1.85 7 7 0 0 0 -3.62 4.86s-.15 1.66-.15 1.66a17.26 17.26 0 0 0 .74 5 8.9 8.9 0 0 0 2.39 4.25 1.2 1.2 0 0 0 .91.57h.27l.29-.34.15-.18v-.18l-.32-.88a14.13 14.13 0 0 1 -2.08-7.95l.13-1.77c.56-3.26 3.21-4.92 7.84-4.92a33.08 33.08 0 0 1 13.77 3.24 45.51 45.51 0 0 1 11.9 8.09c3.2 3.05 4.82 6.32 4.82 9.71a5.91 5.91 0 0 1 -3.44 5.71 17.15 17.15 0 0 1 -8 1.75 9.12 9.12 0 0 1 -4-.7h-.06-.05c-.46-.12-.55-.28-.6-.43l-.22-.64-.61.3a3.41 3.41 0 0 0 -.81.53v-.06a122.88 122.88 0 0 0 6.27-14.61 3.54 3.54 0 0 0 .08-1.49c0-.45-.11-1.4-.83-1.4h-.37l-.23.41-.06.08v.11a101.26 101.26 0 0 1 -8.39 17.72c-5.26 9.15-8.07 11.69-9.51 12.22a3.75 3.75 0 0 1 -4.52-1.24c-.4-.4-.66-.66-1.1-.66a.8.8 0 0 0 -.83.88 2.1 2.1 0 0 0 .39 1 6 6 0 0 0 2.47 2.15 4.72 4.72 0 0 0 1.7.31 7.47 7.47 0 0 0 3.57-.88c3.5-1.94 7.05-6.41 10.86-13.61.13 1.72 5.14 1.81 6.16 1.81a25.41 25.41 0 0 0 9.37-1.61c3.95-1.59 5.95-4.28 5.95-8z" fill="#8a1f03"/><path d="m162.77 89a.94.94 0 0 0 1-.09 2.52 2.52 0 0 0 1.26-1.7v-.37l-.38-.26a5.07 5.07 0 0 0 -2.49-.34h-.16-.1a22.22 22.22 0 0 0 -4.9 3.37 37 37 0 0 0 -4 3.75c.76-1.2 1.83-2.74 3.28-4.7a.87.87 0 0 0 .24-.63 1.1 1.1 0 0 0 -.14-.49 1 1 0 0 0 -.9-.6.75.75 0 0 0 -.56.21 35.45 35.45 0 0 1 -3.42 1.93l-.37.14.05.15v.8l.1.35a2.67 2.67 0 0 1 -.24.95 80.72 80.72 0 0 1 -6.24 10.91s-.11.91-.11 1a.74.74 0 0 0 .54.55.73.73 0 0 0 .66-.23l1.82-.89a1.44 1.44 0 0 0 .68-.59c3.61-5.95 7.74-10.22 12.32-12.77a2.51 2.51 0 0 1 2.06-.45z" fill="#8a1f03"/><path d="m144.65 103.47v-.12s0 0 0 0z" fill="#7c1113"/><path d="m156.35 87.46s0 .07 0 .09 0 0 0 .06z" fill="#7c1113"/><path d="m179.52 89.59c0-.06-.11-.56-.11-.56v-.07a3 3 0 0 1 1.3-.2c1 0 1.32-.47 1.32-.89s-.17-.78-1.32-.78l-4.58-.15h-1.46l-.21-.13a4.73 4.73 0 0 0 -2.47-.92 3.88 3.88 0 0 0 -2.4 1.11l-.23.1a6.41 6.41 0 0 0 -.92 0h-.88c-.54 0-2 .06-2 1.21 0 .62.57 1.06 1.3 1.5-4.12 5.08-6.25 9-6.31 11.75a2.24 2.24 0 0 0 .84 1.66 2.58 2.58 0 0 0 2 .64c2.85-.38 6.15-2.21 10.07-5.57s5.81-6.18 6-8.8m-16.46 12.65a.36.36 0 0 1 -.06-.25 1.58 1.58 0 0 1 .21-.75 32.39 32.39 0 0 1 7.78-11.14l.5-.3h-.35.14.33a7.74 7.74 0 0 1 3.72-.4c.9.09 1.18.32 1.27.45s.12.17 0 .49c-.45 2.18-2.23 4.67-5.3 7.42s-5.42 4.21-7.46 4.52c-.56.1-.72-.02-.78-.04z" fill="#8a1f03"/><path d="m222.81 103.47.01-.12z" fill="#7c1113"/><path d="m241.89 89a2.51 2.51 0 0 0 1.26-1.7v-.37l-.37-.26a5.13 5.13 0 0 0 -2.48-.34h-.11-.1a22.12 22.12 0 0 0 -4.91 3.28 36.55 36.55 0 0 0 -4 3.75c.76-1.2 1.83-2.74 3.29-4.7a.88.88 0 0 0 .23-.63 1.06 1.06 0 0 0 -.14-.48 1 1 0 0 0 -.91-.6.71.71 0 0 0 -.55.21 37.22 37.22 0 0 1 -3.43 1.93l-.36.14.05.15v.8l.12.37a2.87 2.87 0 0 1 -.24.93 80.67 80.67 0 0 1 -6.24 10.91s-.12.95-.12 1a.72.72 0 0 0 .55.55.73.73 0 0 0 .6-.21l1.88-.91a1.46 1.46 0 0 0 .67-.59c3.61-5.93 7.77-10.22 12.36-12.75 1.21-.63 1.75-.53 2.05-.41a.93.93 0 0 0 .9-.07z" fill="#8a1f03"/><path d="m234.52 87.46s0 .06 0 .09 0 0 0 .06z" fill="#7c1113"/><path d="m260.77 87.09-4.57-.15h-1.48l-.2-.12a4.77 4.77 0 0 0 -2.49-.93 3.91 3.91 0 0 0 -2.36 1.11l-.23.1a6 6 0 0 0 -.93 0h-.88c-.54 0-2 .06-2 1.21 0 .62.57 1.06 1.3 1.5-4.12 5.08-6.26 9-6.3 11.75a2.24 2.24 0 0 0 .84 1.66 2.59 2.59 0 0 0 2 .64c2.86-.38 6.16-2.21 10.07-5.57s5.81-6.18 6-8.8c0-.06-.11-.57-.11-.57v-.07a3 3 0 0 1 1.31-.2c1 0 1.3-.47 1.3-.89s-.17-.78-1.3-.78m-9.41 10.54c-2.91 2.69-5.43 4.21-7.47 4.52-.59.12-.75 0-.77 0a.37.37 0 0 1 -.06-.25 1.59 1.59 0 0 1 .2-.75 32.32 32.32 0 0 1 7.77-11.04s.5-.3.5-.3h-.2.33a7.75 7.75 0 0 1 3.72-.4c.9.09 1.18.32 1.27.45s.12.16 0 .49c-.42 2.16-2.2 4.65-5.26 7.4z" fill="#8a1f03"/><path d="m267.06 50.15c0 4.22.25 3.15-6.46 7.54-6.25 4.09-16.81 9.61-24.18 12.09-5.61 1.89-13.46 4.14-19 4.14l-2.61-.1c5.6-9.46 12.49-18.72 19.19-25.21l-2-1.26a131.86 131.86 0 0 0 -16.3 20.28 14.08 14.08 0 0 0 -7.4 3.75 2 2 0 0 0 -.52 1.32 3.3 3.3 0 0 0 2.28 3l.6.1c-4.92 8.51-9.83 20.83-12.19 25.88 0 .07-.11.67-.11.67a2.34 2.34 0 0 0 0 .47 2.49 2.49 0 0 0 -1.08 1v.08.08a1 1 0 0 0 .19.8 1 1 0 0 0 .78.35l.88-.31a4 4 0 0 1 1.22-.47 1.93 1.93 0 0 1 1.63.32 4.08 4.08 0 0 1 .88 3c-.49 3.18-2.77 7-6.75 11.17s-7.91 7-11.7 8.18a10.85 10.85 0 0 1 -3.55.6c-3.54 0-5.26-2.52-5.26-7.7v-2.25c.52-5.72 3-13.17 7.42-22.13a126.35 126.35 0 0 1 9.12-15.27 1.17 1.17 0 0 1 .8-.51l7.53-.41 6.59-.35a1.94 1.94 0 0 0 1.53-1.55v-.45h-.18l-1-.31h-.77-5.52-6.84l.09-.15c6.77-9.29 11.63-14.29 14.46-14.88.38-.1 1-.27 1-.92a1 1 0 0 0 -1.12-1 4.67 4.67 0 0 0 -1.82.45l-1.09.4c-1.95.72-2.63 1.05-2.93 1.42l-1.68 1.94a114.77 114.77 0 0 0 -9.95 12.61 1.52 1.52 0 0 0 0 .16c-4.11 0-4.71.44-4.94.89l-.05 1a2.74 2.74 0 0 0 1.69 1.34.79.79 0 0 1 .49.78 1.41 1.41 0 0 1 -.42 1 105.15 105.15 0 0 0 -9.83 18.08c-3.72 8.51-5.52 14.89-5.52 19.5 0 3 .35 5.36 2.1 7.31a8.87 8.87 0 0 0 6.73 3.05c4.33 0 9.22-2.51 14.94-7.69s8.71-9.78 9.29-14c.11-.84-.34-2-1.42-3.65a4.59 4.59 0 0 0 -2.83-2.26c1.43-1.62 3.32-3.58 5.67-5.84a41.78 41.78 0 0 1 7.55-6.23 1.29 1.29 0 0 1 .7-.27h.17a.77.77 0 0 1 -.12.33c-3.06 4.05-4.85 7.31-5.45 10a2.52 2.52 0 0 0 1.11 2.67 3.34 3.34 0 0 0 2.24 1c2.12 0 5.22-1.72 9.77-5.42l.4-.39.37-.37-.3-.42-.47-.66-.48.34-.43.25c-4.43 3.36-6.58 4.07-7.61 4.07-.61 0-.73-.23-.73-.68 0-.61.31-2.19 2.37-5.94a42.5 42.5 0 0 1 3.72-5.74s.19-.65.19-.65a1.74 1.74 0 0 0 -.65-1.22 1.77 1.77 0 0 0 -1.24-.5 6.49 6.49 0 0 0 -2.18.78c-1.63.31-4.3 2.22-6.31 3.85s-3.83 3.27-5.72 5.09c2.7-4.83 6.9-15.72 9.6-20.28l3 .09c13 0 29-6.48 41.54-14.3 3.73-2.32 11.35-7.91 13.91-9.77 2.4-1.74 3.23-3.07 3.39-4.31l-8.36 2.56m-55.3 23.69-1.28-.16c-.57-.08-.57-.3-.57-.38a.63.63 0 0 1 .21-.51 11 11 0 0 1 4.1-2.84z" fill="#8a1f03"/><text fill="#8a221b" font-family="TimesNewRomanPSMT, Times New Roman" font-size="11.32" transform="matrix(1.31 0 0 1 213.49 122.15)"><tspan letter-spacing=".02em">C</tspan><tspan x="7.77" y="0">E</tspan></text><text fill="#8a221b" font-family="TimesNewRomanPSMT, Times New Roman" font-size="11.32" transform="matrix(1.31 0 0 1 232.94 122.15)">R</text><text fill="#8a221b" font-family="TimesNewRomanPSMT, Times New Roman" font-size="11.32" letter-spacing=".02em" transform="matrix(1.31 0 0 1 242.2 122.15)">T<tspan letter-spacing=".02em" x="7.13" y="0">IFI</tspan><tspan letter-spacing=".02em" x="21.58" y="0">E</tspan><tspan letter-spacing=".02em" x="28.71" y="0">D</tspan><tspan letter-spacing=".02em" x="37.09" y="0"></tspan><tspan letter-spacing=".02em" x="40.14" y="0">PU</tspan><tspan x="55.02" y="0">BL</tspan><tspan letter-spacing=".02em" x="69.92" y="0">I</tspan><tspan letter-spacing="0em" x="73.9" y="0">C</tspan></text><text fill="#8a221b" font-family="TimesNewRomanPSMT, Times New Roman" font-size="11.32" transform="matrix(1.31 0 0 1 352.09 122.15)"><tspan letter-spacing=".02em">A</tspan><tspan letter-spacing=".02em" x="8.38" y="0">CC</tspan><tspan letter-spacing=".02em" x="23.92" y="0">OU</tspan><tspan x="40.68" y="0">N</tspan></text><text fill="#8a221b" font-family="TimesNewRomanPSMT, Times New Roman" font-size="11.32" transform="matrix(1.31 0 0 1 416.2 122.15)">T</text><text fill="#8a221b" font-family="TimesNewRomanPSMT, Times New Roman" font-size="11.32" transform="matrix(1.31 0 0 1 424.33 122.15)"><tspan letter-spacing=".02em">AN</tspan><tspan letter-spacing=".02em" x="16.76" y="0">T</tspan><tspan x="23.89" y="0">S</tspan></text><g fill="#8a1f03"><path d="m0 35.08v-10.94h6.84v1.37h-5.47v3.28h4.1v1.38h-4.1v3.54h5.47v1.37z"/><path d="m18.26 25.51v9.57h-1.37v-9.57h-3.41v-1.37h8.2v1.37z"/><path d="m28.32 35.08v-10.94h6.84v1.37h-5.47v3.28h4.1v1.38h-4.1v3.54h5.47v1.37z"/><path d="m50.12 35.08-2.75-4.8h-3.17v4.8h-1.37v-10.93h5.8a3.06 3.06 0 0 1 2.27 5.13 3 3 0 0 1 -2 1l2.77 4.8zm.21-7.86a1.73 1.73 0 0 0 -1.7-1.7h-4.43v3.4h4.44a1.65 1.65 0 0 0 1.2-.5 1.63 1.63 0 0 0 .5-1.2"/><path d="m65.54 35.08-5.48-8.43v8.43h-1.36v-10.94h1.36l5.48 8.42v-8.42h1.37v10.94z"/><path d="m81.57 35.08-.75-2.08h-5.42l-.75 2.05h-1.46l4-10.93h1.89l4 10.93zm-3.46-9.52-2.23 6.1h4.45z"/><path d="m89.34 35.08v-10.94h1.37v9.57h5.47v1.37z"/><path d="m116.68 35.08h-1.88l-3.98-10.94h1.45l3.47 9.52 3.46-9.52h1.47z"/><path d="m133 35.08-.8-2.08h-5.43l-.77 2.08h-1.45l4-10.93h1.89l4 10.93zm-3.46-9.52-2.23 6.1h4.44z"/><path d="m140.72 35.08v-10.94h1.37v9.57h5.47v1.37z"/><path d="m161.43 33.9a4.44 4.44 0 0 1 -6.27 0 4.25 4.25 0 0 1 -1.3-3.13v-6.63h1.37v6.63a3.07 3.07 0 1 0 6.14 0v-6.63h1.37v6.62a4.26 4.26 0 0 1 -1.3 3.13"/><path d="m170.41 35.08v-10.94h6.84v1.37h-5.47v3.28h4.1v1.38h-4.1v3.54h5.47v1.37z"/><path d="m191 32.15a2.9 2.9 0 0 1 -.91 2.15 3 3 0 0 1 -2.18.89 2.94 2.94 0 0 1 -1.92-.69 3 3 0 0 1 -1-1.77l1.32-.35a1.74 1.74 0 0 0 .55 1 1.58 1.58 0 0 0 1.09.42 1.7 1.7 0 0 0 1.21-.5 1.59 1.59 0 0 0 .51-1.19 1.79 1.79 0 0 0 -1.22-1.63l-1.18-.48-1.13-.51a2.75 2.75 0 0 1 -1.23-2.49 2.88 2.88 0 0 1 .92-2.16 3 3 0 0 1 2.17-.84 2.89 2.89 0 0 1 1.93.71 3 3 0 0 1 1 1.78l-1.35.34a1.68 1.68 0 0 0 -.53-1 1.53 1.53 0 0 0 -1.09-.42 1.71 1.71 0 0 0 -1.22.5 1.57 1.57 0 0 0 -.51 1.18 1.82 1.82 0 0 0 1.22 1.66l2.25 1a2.74 2.74 0 0 1 1.3 2.4"/><path d="m392.26 24.16h1.37v10.93h-1.37z"/><path d="m405.51 35.09-5.48-8.42v8.42h-1.37v-10.93h1.37l5.48 8.42v-8.42h1.37v10.93z"/><path d="m413.27 25.53v3.28h4.11v1.37h-4.11v4.91h-1.36v-10.93h6.84v1.37z"/><path d="m423.09 24.16h1.37v10.93h-1.37z"/><path d="m436.35 35.09-5.48-8.42v8.42h-1.37v-10.93h1.37l5.48 8.42v-8.42h1.36v10.93z"/><path d="m442.74 24.16h1.37v10.93h-1.37z"/><path d="m452.9 25.53v9.56h-1.37v-9.56h-3.41v-1.37h8.2v1.37z"/><path d="m460.33 35.09v-10.93h6.85v1.37h-5.48v3.28h4.1v1.37h-4.1v3.55h5.48v1.36z"/><path d="m488.18 27.23a3.07 3.07 0 0 1 -3.07 3.07h-4.44v4.8h-1.37v-10.94h5.8a3.11 3.11 0 0 1 3.08 3.07m-1.37 0a1.73 1.73 0 0 0 -1.71-1.71h-4.44v3.4h4.44a1.65 1.65 0 0 0 1.2-.5 1.63 1.63 0 0 0 .5-1.2"/><path d="m503.07 29.62a5.61 5.61 0 1 1 -9.56-3.94 5.61 5.61 0 0 1 9.56 3.94m-1.37 0a4.27 4.27 0 1 0 -1.25 3 4.08 4.08 0 0 0 1.25-3"/><path d="m511.18 25.53v9.56h-1.37v-9.56h-3.42v-1.37h8.21v1.37z"/><path d="m518.61 35.09v-10.93h6.84v1.37h-5.47v3.28h4.1v1.37h-4.1v3.55h5.47v1.36z"/><path d="m537.33 35.09-5.47-8.42v8.42h-1.37v-10.93h1.37l5.47 8.42v-8.42h1.37v10.93z"/><path d="m547.49 25.53v9.56h-1.37v-9.56h-3.42v-1.37h8.21v1.37z"/><path d="m554.92 24.16h1.37v10.93h-1.37z"/><path d="m568.34 35.09-.76-2.09h-5.42l-.75 2.05h-1.41l4-10.93h1.88l4 10.93zm-3.46-9.52-2.23 6.1h4.45z"/><path d="m573.47 35.09v-10.93h1.37v9.57h5.48v1.36z"/></g></svg>